<svg xmlns="http://www.w3.org/2000/svg" width="190" height="157" viewBox="0 0 190 157"><g transform="translate(-1230.051 -2435)"><rect width="190" height="157" transform="translate(1230.051 2435)" fill="#cef4dd"/><path d="M69.69,0H64.511C58.53,0,53.68,8.313,53.68,18.569v4.44C53.68,10.3,47.672,0,40.26,0S26.84,10.3,26.84,23.009C26.84,10.3,20.832,0,13.42,0S0,10.3,0,23.009v92.034c0,12.707,6.008,23.009,13.42,23.009s13.42-10.3,13.42-23.009c0,12.707,6.008,23.009,13.42,23.009s13.42-10.3,13.42-23.009v4.44c0,10.256,4.849,18.569,10.831,18.569H69.69c5.982,0,10.831-8.313,10.831-18.569V18.569C80.521,8.313,75.672,0,69.69,0" transform="translate(1256.051 2553.82) rotate(-90)" fill="#cef4dd" opacity="0.5" style="mix-blend-mode:multiply;isolation:isolate"/><g transform="translate(1264.053 2452.01)"><g transform="translate(-0.002 -0.01)"><path d="M116.648,82.01c.428.078.834.156,1.215.241C136.606,82.22,144.42,103.293,134,117.58a22.266,22.266,0,0,0-4.877,9.154,25.006,25.006,0,0,0,1.6,9.317c.413,1.823.849,3.833-.3,5.477a1.4,1.4,0,0,1,1.527.475v.242H128.3q-2.816-.14-5.586-.242a29.087,29.087,0,0,1-5.586,0,28.562,28.562,0,0,1-5.827,0c-1.153-.016-4.261.226-5.095-.125-1.628-.686-2.119-4.869-2.47-6.4a22.953,22.953,0,0,0-3.365.21H96a7.656,7.656,0,0,1,2.181.242c-4.417,1.036-7.962-2.1-6.014-6.622.156-.358.717-.654.654-1-.078-.444-1.714-1.285-1.636-2.181.086-.95,1.8-1.387,1.652-1.979-.5-.569-2.135-1.223-2.2-1.955-.07-.826,1.761-1.815.382-2.057-1.963-.335-5.251.608-4.627-2.921,2.049-3.506,4.939-6.232,5.648-10.377.9-5.251.343-9.185,3.513-13.976,4.588-6.926,12.963-10.54,21.088-10.852Z" transform="translate(-19.073 -18.114)" fill="#fec6aa"/><path d="M19.008,158.883c.21.07.21.148,0,.242H12.69v-.242l.467-.436,5.4-.047Z" transform="translate(-2.802 -34.994)" fill="#fee6da"/><path d="M37.5,158.872v.242H31.675c-.21-.07-.21-.148,0-.242A8.378,8.378,0,0,1,37.5,158.872Z" transform="translate(-6.963 -34.983)" fill="#fef8f6"/><path d="M124.217,159.02c.21.07.21.148,0,.242H118.39v-.242C120.33,159.043,122.277,159.02,124.217,159.02Z" transform="translate(-26.159 -35.131)" fill="#fef8f6"/><path d="M30.081,158.894v.242H24.5c-.21-.07-.21-.148,0-.242A9,9,0,0,1,30.081,158.894Z" transform="translate(-5.376 -35.005)" fill="#fef1eb"/><path d="M131.456,159.02c.21.07.21.148,0,.242H125.87v-.242Z" transform="translate(-27.812 -35.131)" fill="#fef1eb"/><path d="M138.626,159.258H133.04v-.241A23.392,23.392,0,0,1,138.626,159.258Z" transform="translate(-29.397 -35.12)" fill="#fee9df"/><path d="M23.714,158.878v.242H20.8v-.242A2.374,2.374,0,0,1,23.714,158.878Z" transform="translate(-4.595 -34.99)" fill="#feebe2"/><path d="M9.885,142a3.2,3.2,0,0,1-2.438-2.8c-.07-2.329,1.916-6.715,2.166-9.5.654-7.3-4.191-10.127-7.058-15.954-6.435-13.1-.335-27.352,13.929-30.849C30.413,79.482,46.819,85.784,49.2,101.1c.436,2.836.234,5.9,1.371,8.585.81,1.916,4.931,6.762,4.994,8.141.125,2.812-3.21,2.033-4.752,2.306-1.387.241.452,1.231.382,2.057-.062.732-1.7,1.387-2.2,1.955-.156.615,1.753,1.075,1.652,2.142-.078.779-1.55,1.6-1.628,2.018-.031.164,1.184,1.987,1.207,3.124.164,6.559-8.117,4.129-12.129,4.043-.288.179-.475,5.235-2.329,6.295-.818.467-4.035.218-5.235.234-1.94.023-3.887-.008-5.827,0s-3.732.008-5.586,0c-.966,0-1.948.008-2.914,0a61.025,61.025,0,0,1-6.318,0Z" transform="translate(0.002 -18.11)" fill="#fec6aa"/><path d="M87.273,15.555l.5.841c.366,5.788.436,12.153.226,17.949-.125,3.568-.343,7.346-3.911,9.076-.67.327-1.916.9-2.275.062l-.171.483H58.176l-.3-.483c.771.351.678,2.251,0,2.672-.569-.405-.055-2.485-.242-2.672-.273-.273-6.8.117-7.767.125L36.753,56.594V43.475c-3.529.288-6.754-1.036-7.51-4.76L29.22,4.734A5.489,5.489,0,0,1,33.949-.01L83.16.107C85.8.878,87.078,3.059,87.281,5.7c.241,3.069-.031,6.7-.008,9.847Z" transform="translate(-6.455 0.01)" fill="#8cc9fb"/><path d="M98.558,19.94c2.719,0,5.991-.234,8.632-.008s4.238,1.519,4.666,4.082V50.361c-.5,3.132-2.953,4.487-6.006,4.074V64.882L95.231,54.49,69.8,54.42a4.747,4.747,0,0,1-3.786-3.381l.171-.483H90.394a8.6,8.6,0,0,0,7.666-7.245l.023-23.067.483-.3Z" transform="translate(-14.585 -4.375)" fill="#3e96df"/><path d="M140.848,142.005c-.9.109-1.979-.078-2.914,0,.039-.382.569-.374.865-.709a3.448,3.448,0,0,0,.569-.888c.974-2.431-1.737-8.39-1.916-11.4-.351-6.053,3.724-9.06,6.349-13.8,8.312-15.02.241-31.566-17.045-32.953-.21-.07-.21-.148,0-.241,18.556.016,30.063,15.822,20.839,32.859-2.851,5.258-7.159,8.047-6.482,14.833.265,2.672,2.618,8.156,2.041,10.361a2.736,2.736,0,0,1-2.314,1.932Z" transform="translate(-27.973 -18.116)" fill="#fea97b"/><path d="M98.55,19.97l-.023,23.41a9.061,9.061,0,0,1-8.117,7.673H66c-.023-.14.016-.319,0-.483-.086-.857.062-1.8,0-2.672H89.926c2.8,0,5.064-2.672,5.4-5.29.795-6.333.117-15.97.07-22.639H98.55Z" transform="translate(-14.577 -4.405)" fill="#2474b4"/><path d="M103.12,150.847c-.514.039-1.433.475-2.189.242l-2.181-.242C100.191,151.127,101.8,150.146,103.12,150.847Z" transform="translate(-21.819 -33.268)" fill="#feb791"/><path d="M126.465,82.008v.241c-.39-.031-1,.164-1.215-.241C125.655,81.992,126.06,82.008,126.465,82.008Z" transform="translate(-27.675 -18.112)" fill="#feb690"/><path d="M71.322,15.773v5.219a10.261,10.261,0,0,1-1.574,2.8c-2.836,2.929-9.4,1.192-13.134,1.683a1.439,1.439,0,0,0-1.27.911c-.5,1.589.631,1.317,1.652,2.127a6.055,6.055,0,1,1-7.276-.226c.327-.249,1.363-.6,1.4-.662.1-.164.265-2.212.576-2.945,2.259-5.352,10.127-2.532,14.4-3.334.444-.086,1.34-1,1.34-1.332V15.765c-.943.093-1.433,1.426-2.244,1.761-2.158.888-3.724-1.239-2.251-3.217A49.228,49.228,0,0,1,67.918,9.33a2.031,2.031,0,0,1,2.2-.491,61.587,61.587,0,0,1,5.7,5.477c1.387,1.854-.093,4.113-2.251,3.217-.818-.335-1.3-1.667-2.244-1.761Z" transform="translate(-10.424 -1.914)" fill="#fde45a"/><path d="M55.98,8.677c1.729,1.581-.545,3.334-1.6,4.448-.125.7,3.685,2.571,1.574,4.713-1.69,1.722-3.459-.514-4.627-1.706-3.521,4.923-7.549.748-2.8-2.8-1.122-1.036-3.21-2.812-1.807-4.487,1.948-2.322,4.238,1.535,4.814,1.433C52.708,9.16,54.274,7.112,55.98,8.677Z" transform="translate(-10.218 -1.783)" fill="#eb5a6e"/><path d="M75.258,34.145c1.394-.039,2.181,1.519,3.163,2.306,1.036-1.2,3.264-3.513,4.744-1.581,1.722,2.251-1.714,3.358-1.714,4.378,0,.88,4.16,2.945,1.215,4.846-2.251,1.457-3.2-1.823-4.238-1.823-.9,0-2.8,4.02-4.736,1.348-1.262-1.737.841-3.241,1.94-4.378-.693-.88-2.415-1.885-2.353-3.124a2.082,2.082,0,0,1,1.987-1.987Z" transform="translate(-16.191 -7.533)" fill="#eb5a6e"/><path d="M53.123,36.22c5.227-1.083,5.352,6.52.686,6.271C50.311,42.3,49.773,36.913,53.123,36.22Z" transform="translate(-11.241 -7.973)" fill="#3e97df"/></g></g></g></svg>