<svg xmlns="http://www.w3.org/2000/svg" width="190" height="157" viewBox="0 0 190 157"><g transform="translate(-1230.051 -2755)"><rect width="190" height="157" transform="translate(1230.051 2755)" fill="#cef4dd"/><path d="M69.69,0H64.511C58.53,0,53.68,8.313,53.68,18.569v4.44C53.68,10.3,47.672,0,40.26,0S26.84,10.3,26.84,23.009C26.84,10.3,20.832,0,13.42,0S0,10.3,0,23.009v92.034c0,12.707,6.008,23.009,13.42,23.009s13.42-10.3,13.42-23.009c0,12.707,6.008,23.009,13.42,23.009s13.42-10.3,13.42-23.009v4.44c0,10.256,4.849,18.569,10.831,18.569H69.69c5.982,0,10.831-8.313,10.831-18.569V18.569C80.521,8.313,75.672,0,69.69,0" transform="translate(1256.051 2873.521) rotate(-90)" fill="#cef4dd" opacity="0.5" style="mix-blend-mode:multiply;isolation:isolate"/><g transform="translate(1266.101 2774)"><g transform="translate(-0.05)"><path d="M265.669,0c.125.312.468.187.687.25l-.343.656c-15.954,5.152-16.079,26.788,0,31.908l.375.687c-.406.062-.749.187-1.155.25-.375.812-3.122.812-3.5,0-17.39-1.343-21.043-26.226-4.433-32.657L260.767,0Z" transform="translate(-169.585)" fill="#f9c500"/><path d="M2.349,265.386c1.28.062,2.529.125,3.747.25l.468.156V295.2a7.262,7.262,0,0,0,2.56,4.652v.624c-.562.312-1.124.375-1.624.687H4.691a6.986,6.986,0,0,1-4.652-5.058c0-10.8-.062-21.605,0-32.408.406-.156.812.094,1.249.687.687.219,1.062.531,1.093.937h0Z" transform="translate(0.008 -181.338)" fill="#b2d9fd"/><path d="M257.951,219.078c.219-.781,3.153-.718,3.5,0,.375-.781,3.278-.749,3.747,0l.468.437v3.59c-.406,3.528,3.028,4,2.685.219l-.094-3.934.468-.312c.062-.187.125-.468.281-.468a47.959,47.959,0,0,1,7.337,0l.343.468.468.156v44.521l-.468.281c-10.428.062-20.887,0-31.315,0l-.468-.156v-37.5l.468-.281.437-.343c1.873.624,2.217-1.218,2.248-2.685l-.094-3.559.468-.437c0-.187.031-.468.156-.468a59.647,59.647,0,0,1,9.148,0l.281.468h-.062Z" transform="translate(-168.424 -150.235)" fill="#fd646f"/><path d="M78.131,238.874l.437.718a97.517,97.517,0,0,0,.125,12.457,11.192,11.192,0,0,0,2.9-2.123l.531.187a17.413,17.413,0,0,1,6.307-5.152c.656-.25,1.062.094.687.687l.468.624v31.159l-.468.281H66.2c-.187,0-.468-.062-.468-.156-.156-11.146-.062-22.667.25-33.781a6.6,6.6,0,0,1,5.62-4.933,11.434,11.434,0,0,1,6.556,0h0Z" transform="translate(-45.146 -163.943)" fill="#c3e1fe"/><path d="M117.073,110.143l.406-.5a125.967,125.967,0,0,1,13.737-.125l.25.468a5.159,5.159,0,0,1,1.967.187c.843-.937,2.872.531,3.653,1.28a6.318,6.318,0,0,1,1.717,2.779c.343,1.218.593,3.5-.25,4.371a10.564,10.564,0,0,1,.343,1.062,4.157,4.157,0,0,1,.156,1.062c.031,4.152,0,8.336-.187,12.457a2.834,2.834,0,0,1,2.966.187l-3.278.25c-.312,5.776-3.466,9.71-8.648,11.926,0,.5-.406.781-1.218.905l.094,5.432c0,.843-.219,1.218-.749,1.155l-.468-.219v-5.9c-8.336.375-14.705-3.247-16.079-11.9-.219-1.374-.593-10.74-.125-11.084.156-.125.375,0,.562.062h.5c3.247,3.747,3.309-7.68,0-4.028h-.531a3.808,3.808,0,0,1-.531-.219c-1-4.184.5-10.022,5.682-9.585h0Z" transform="translate(-76.376 -75.237)" fill="#fdd1a3"/><path d="M172.23,240a36.661,36.661,0,0,1,.437,4.87c.062,10.522.125,21.074-.125,31.6l-.312,2.435H150.968l-.468-.156q0-15.642.031-31.284l.437-.624c-.5-.593.125-1.311.687-.687.062-.187.156-.187.25,0l1.03.343c2.716,2.342,5.62,4.683,8.461,6.744a77.277,77.277,0,0,0,.125-12.613l.437-.531H172.23Z" transform="translate(-103.496 -165.069)" fill="#c3e1fe"/><path d="M281.531,33.951a34.888,34.888,0,0,1-5.027-2.342,16.91,16.91,0,0,1-1.748-27.287c2.123-1.78,4.309-2.529,6.775-3.622,18.577,3.715,17.952,30.253,0,33.251Z" transform="translate(-184.761 -0.481)" fill="#fdd302"/><path d="M348.473,219.391a3.288,3.288,0,0,1,3.5,0c1.592,0,4.839-.624,5.12,1.311v42.367a1.4,1.4,0,0,1-1.28,1.28c-2.4.375-6.588,0-9.21,0V219.391a1.424,1.424,0,0,1,1.873,0Z" transform="translate(-238.372 -150.548)" fill="#fc4755"/><path d="M123.034,53.825a8.074,8.074,0,0,1-3.559.531c3.028,3.9,3.341,8.242,3.028,12.832,1.249-.25,1.811,0,1.686.687a114.445,114.445,0,0,0-16.36,0,41.326,41.326,0,0,0-7.306.687l-1.811.968-.468-.25-.437-.468c-.156-2.279-.156-5.183-.094-7.493.156-5.027.687-10.334,5.932-12.613a24.356,24.356,0,0,0-3.809-.062l-.656-.437c.25-.375.874-.25,1.28-.25,6.151-.062,10.865-.219,15.892,3.747.5.406,1.467,1.686,1.936,1.811,1.311.375,3.434-.375,4.746.281h0Z" transform="translate(-67.164 -32.969)" fill="#685e68"/><path d="M227.6,220.334l.468.468a21.267,21.267,0,0,0,.281,5.994l-.281.562v37.934h-8.18c.094-12.957-.125-25.914,0-38.87a38.557,38.557,0,0,1,0-5.027,1.334,1.334,0,0,1,1.28-1.062C223.1,220.084,225.6,220.552,227.6,220.334Z" transform="translate(-151.152 -151.491)" fill="#fc4755"/><path d="M48.175,177.693c.125.531.25,1.062.343,1.592a9.171,9.171,0,0,1,.156,1.592c.062,5.245.062,10.522-.219,15.767a7.574,7.574,0,0,1,4.4.25c-2.747,1.124-4.9,2.872-5.339,5.994v32.876h-8.43l-.281-.968q-.515-14.237-.375-28.38l.656-.406V205.7a4.621,4.621,0,0,0,1.4-1.717c0-4.309.031-8.586.062-12.894l.406-.968c.187.031.468.125.468.25.094.937.375,6.869.219,7.337l-.468.343.25-.468h4.9l.343.468a2.278,2.278,0,0,1,.843-1.436l-.062-18.67c0-.531.187-.781.718-.5.219.031.187.125,0,.25Z" transform="translate(-26.398 -121.963)" fill="#b2d9fd"/><path d="M46.96,154.512a.831.831,0,0,1,.375-.094c1.28-.062,1.124,5.682,1.03,6.713l-.468.406c-.375.25-.25.905-.25,1.28-.062,5.932.062,11.864,0,17.827.187.5-1,1.5-1.311,1.5H40.841l-.25-7.961c-.437-.187-.718-.687-.905-1.436a6.018,6.018,0,0,1-1.218-1.374L38,171.153v-16.61l.468-.281c1.436,0,7.649-.25,8.4.25h.094Z" transform="translate(-26.12 -106.057)" fill="#0592fb"/><path d="M169.271,66.634a13.47,13.47,0,0,1,11.739,9.429c1.374,4.4.312,9.647.656,14.237l-.593.156a8.213,8.213,0,0,0-5.027-.874l-.437-.468c0-1.093.094-2.31,0-3.372a5.961,5.961,0,0,0-5.12-5.058c-.312-.531-1.936-.062-2.092-.25-.187-.187.062-4.652,0-5.495a16.659,16.659,0,0,0-3.5-8.211,26.309,26.309,0,0,1,4.433-.125h0Z" transform="translate(-113.401 -45.778)" fill="#554e56"/><path d="M83.067,48.641c1.842-.125,4.121-.062,5.963,0,.281,0,.874-.187.812.219C79.913,51.045,82.411,62.1,82.13,69.715l.062.593a8.713,8.713,0,0,0-1.467,6.057l-.468.375-.437.437a8.684,8.684,0,0,0-5.027.874L74.2,77.9V57.633a9.5,9.5,0,0,1,8.867-8.992Z" transform="translate(-51.018 -33.405)" fill="#554e56"/><path d="M263.391,159.575c.843-.281,2.841,1.748,2.56,2.56l.749.187c2.466,2.373,2.81,11.146,2.31,14.455l-.468.562c0,1.623.281,4.746-.062,6.151-.281,1.249-2.029,1.467-2.872.656-.937-.905-.562-5.308-.562-6.806l-.468-.437.125-5.339a12.876,12.876,0,0,0-1.748-7.087c-.531,0-1-.406-1.4-1.155a1.919,1.919,0,0,1-1.155-.937,1.618,1.618,0,0,1-1.28-.281c-10.147-2.029-11.3,7.056-10.4,14.861l-.468.437c-.031,2.5,1.093,8.523-3.028,7.025-.843-2.061-.437-4.746-.468-7.025-.094-6.525-1.062-13.175,4.933-17.421,3.747-2.654,9.928-3.028,13.769-.375h0Z" transform="translate(-168.244 -108.528)" fill="#685e68"/><path d="M26.125,268.347a2.546,2.546,0,0,0-.25,1.28c-.312,9.429.593,19.139.25,28.474a6.976,6.976,0,0,1-3.5,5.37c-1.655-1.53-2.81-2.935-3.028-5.276V268.566a5.161,5.161,0,0,1,1.717-.094c.062-.187.125-.312.219-.312.718-.062,3.653-.25,4.246-.187l.375.375h-.031Z" transform="translate(-13.465 -184.299)" fill="#c3e1fe"/><path d="M3.494,208.512c1.467-.062,2.872-.187,4.309-.312l.375.312a2.5,2.5,0,0,1-1.124,1.467c-1.093,1.5-.781,10.147-.687,12.332.031,1.873.094,3.434,1.811,4.527a.7.7,0,0,1,0,.437c-.125.281-5.245,0-5.87-.031a3.319,3.319,0,0,1-2.342-1.623c0-5.027-.062-10.022.062-15.049.593-1.9,1.717-1.967,3.466-2.061h0Z" transform="translate(0.05 -143.197)" fill="#febc85"/><path d="M205.135,139.88a5.851,5.851,0,0,1,2.279,3.466c.718,4.184.094,9.71-5.089,10.116-1.062.094-2.217-.062-3.278,0-.094-4.9.125-9.835,0-14.736,2.31-.062,4.121-.187,6.088,1.186Z" transform="translate(-136.87 -95.39)" fill="#febc86"/><path d="M144.3,261.566v32.1h-3.5v-32.1c.437-.25,1.061-.062,1.873.593C143.329,261.535,143.86,261.316,144.3,261.566Z" transform="translate(-96.825 -179.829)" fill="#8ac8fd"/><path d="M159.67,225l4.87,3.091a9.063,9.063,0,0,1,.062,1.592c.125,3.528.406,9.429,0,12.769-.094.812-.343,1-1.186.687-2.872-2.56-6.151-4.714-8.867-7.368l-.25-.5c1-.937,1.967-1.873,3-2.779h.531c.687-1.436,0-5.089.219-6.869A12.671,12.671,0,0,1,159.7,225h-.031Z" transform="translate(-106.11 -154.752)" fill="#b2d9fd"/><path d="M74.961,138.6l.281,1.062a114.085,114.085,0,0,1,0,13.862c-1.03,0-2.4-.062-3.59-.187-1.218.874-3.965-.843-4.215-2.342v-.25c0-1.592.437-6.182-.937-7.025a7.011,7.011,0,0,1,2.342-4c1.873-1.311,3.871-1.249,6.088-1.186h0Z" transform="translate(-45.722 -95.269)" fill="#f5a86c"/><path d="M323.152,177.3h-3.5l-.5-.5c.78-7.462-.437-16.454-10.053-14.924a2.1,2.1,0,0,1-1.842.219,28.274,28.274,0,0,0-2.56-2.56,11.99,11.99,0,0,1,16.235,3.309c2.966,4.371,2.123,9.46,2.248,14.487h0Z" transform="translate(-209.553 -108.454)" fill="#554e56"/><path d="M12.782,154.871c.531-.156,3.684-.25,3.809.031.156.437-.5,1.311-1,1,.187,0,.468.094.468.219.156,4.34.219,9.429,0,13.737.156.874,0,1.4-.468,1.624a13.688,13.688,0,0,1-3.747,0q-.14-7.634,0-15.455c.062-.624.281-1.061.937-1.186h0Z" transform="translate(-8.083 -106.416)" fill="#0182fb"/><path d="M30.667,154.5v17.109c-.468.624-3.122.749-3.5,0-.187,0-.468-.094-.468-.219-.062-2.092-.343-16.048.156-16.7a.5.5,0,0,1,.312-.156h3.5Z" transform="translate(-18.257 -106.263)" fill="#554e56"/><path d="M298.566,108c-.312,3.309.437,7.4,0,10.646-.312,2.154-2.56,2.81-3.466.718V108a26.138,26.138,0,0,0,3.5,0Z" transform="translate(-202.951 -74.281)" fill="#fdd303"/><path d="M16.67,154.439v17.109c-.219.437-.5.437-.687,0-1.5,0-3.185-.062-4.683,0l.25-15.673V171.33H15.3V155.751c0-.187.812-.968.687-1.062-1.093.125-2.466-.156-3.5,0a14.545,14.545,0,0,1,4.215-.25Z" transform="translate(-7.756 -106.203)" fill="#0592fb"/><path d="M13.988,209.047a26.116,26.116,0,0,1,3.5,0,2.766,2.766,0,0,1,2.092,2.81c.375,4.433-.281,9.429,0,13.925a3.06,3.06,0,0,1-1.873,2c-1.5.468-4.839.281-6.556.25a13.7,13.7,0,0,1-3.747-.25h5.62c-.343-.468-.905-.624-1.28-1.186a3.773,3.773,0,0,1-.562-1.53,88.4,88.4,0,0,1-.031-12.863,3.479,3.479,0,0,1,2.123-3.153h.687Z" transform="translate(-5.074 -143.732)" fill="#fdd1a3"/><path d="M275.218,260.931a10.1,10.1,0,0,1,.25,19.42c-4.746.281-7.837-5.464-7.868-9.741,0-4.277,3.091-9.429,7.618-9.71Z" transform="translate(-184.036 -179.444)" fill="#fefefe"/><path d="M263.088,260.012a10.209,10.209,0,0,0-6.494,13.425c1.03,2.841,3.653,5.589,6.713,6.026a9.35,9.35,0,0,1-8.961-1.218c-9.3-6.837-2.56-21.418,8.711-18.233Z" transform="translate(-171.907 -178.524)" fill="#f2eff2"/><path d="M291.755,174.523a4.7,4.7,0,0,1-.687,2.529,39.565,39.565,0,0,0-.468,9.835l-.5.5h-3.5c.25-5.089-1.093-10.834,2.56-14.986.25.125.656.031,1.155.343a6.159,6.159,0,0,1,1.4,1.748h0Z" transform="translate(-197.077 -118.575)" fill="#554e56"/><path d="M110.139,224.443c.094-.656,1.936.156,1.936.281a32.4,32.4,0,0,0-.281,3.466,2.859,2.859,0,0,1-1.936,1.53,74.265,74.265,0,0,0-.125,9.866l-.5.781c-.531.406-3.185,3-3.778,2.217a3.308,3.308,0,0,1-.219-1.155,115.481,115.481,0,0,1,0-12.3,5.677,5.677,0,0,1,0-1.03c.25-1.218,4-2.591,4.9-3.653Z" transform="translate(-72.252 -154.195)" fill="#8ac8fd"/><path d="M126.722,232.835c-.125-2.279-.156-4.558-.187-6.869,0-.281,4.9.031,5.308.531.187,0,.468.062.468.219.062.687.125,5.807,0,6.119l-.468.343c.593-.281,2.466,1.249,2.935,1.811.687.531.812.968.343,1.342-.437.094-.5.562-.687.687a8.877,8.877,0,0,1-1.717,1.124c-.094,0-1.592-1-1.811-1.124-.156-.125-.406-.468-.687-.687-.156.094-.375.25-.5.187a17.336,17.336,0,0,1-3.247-3.153c-.062-.156.125-.375.25-.531Z" transform="translate(-86.962 -155.344)" fill="#f5a86c"/><path d="M120.983,240.428c.312.843,2.654,2.81,3.5,3.5-2.061,1.78-4.152,3.5-6.307,5.152.25-1.655-.437-10.178.281-10.959.343-.343,1.78-.874,2.279-1.218.062,1.155.156,2.31.25,3.5Z" transform="translate(-81.223 -162.937)" fill="#b2d9fd"/><path d="M97.768,111.185a6.04,6.04,0,0,0-5.37,5.276,14.836,14.836,0,0,0,.25,4.558,2.486,2.486,0,0,1,.187,2.061,2.116,2.116,0,0,1-.187,1.9c-.375.25-.25.905-.25,1.28-.094,7.837-.812,15.923,7.556,19.825a15.5,15.5,0,0,0,8.8,1.124v6.806c-.593,1.249-2.591,2-3.278,3.278h-.25c.062-.843-3.278-2.935-3.278-3.153v-6.681a31.643,31.643,0,0,1-5.152-.25v6.556a10.839,10.839,0,0,1-.25-3.5c0-1.093.031-2.185,0-3.247a5.771,5.771,0,0,1-1.623-.5A13.462,13.462,0,0,1,86.278,134.6a11.459,11.459,0,0,1-3.278-.25h3.278c.094-4.9-.125-9.835,0-14.736.062-2.435-.156-5.151,1.873-7.025a13.5,13.5,0,0,1,2.217-1.186,20.872,20.872,0,0,1,6.088-.468c.406,0,1.03-.156,1.28.25h.031Z" transform="translate(-57.071 -76.279)" fill="#febc85"/><path d="M126.145,189.72c1.436-.437,2.154,1,3.278,1.53a5.361,5.361,0,0,0,4.433.125c1.374-.531,2.779-2.747,4.277-1.093,2.248,2.466-3.622,4.839-5.526,5.027-2.186.187-6.182-.843-7.337-2.872a1.872,1.872,0,0,1,.874-2.654h0Z" transform="translate(-85.979 -130.431)" fill="#c96e59"/><path d="M135.813,147.83A1.829,1.829,0,0,1,138,149.3c.125,1.561-2.154,3.309-2.81,4.683,1.218,1.062,3.84,2.123,2.435,4.09-1.218,1.717-3.466-.281-4.558-1.28-1.249-1.155-1.717-1.873-1.343-3.684a28.255,28.255,0,0,1,3.216-4.746,1.847,1.847,0,0,1,.874-.562h0Z" transform="translate(-90.496 -101.653)" fill="#c96e59"/><path d="M169.307,139.53a1.891,1.891,0,0,1,2.4,1.249c.219,1.093.25,4.215-.812,4.808-3.372,1.9-3.466-5.495-1.592-6.057h0Z" transform="translate(-115.591 -95.913)" fill="#c96e59"/><path d="M113.181,144.434a7.245,7.245,0,0,1,0-4,1.66,1.66,0,0,1,3.247.125c.125.843.156,3.965-.343,4.558a1.706,1.706,0,0,1-2.9-.687Z" transform="translate(-77.636 -95.729)" fill="#c96e59"/><path d="M284.033,21.259c.125.125,2.185-.062,2.685,0a1.775,1.775,0,0,1-.25,3.528c-1.686.187-7.618-.437-8.523.343a1.732,1.732,0,0,0,1.062,2.9c3.122.5,7.306-1.093,9.8,1.4,2.747,2.747,1.436,7.961-2.4,8.617-.5.094-2.31,0-2.373.062-.187.187.094,2.217-1.342,2.529-2.623.593-1.9-2.092-2.373-2.435-.874-.624-4.121.905-4.246-1.624-.062-1.343.781-1.842,2-2,2.061-.25,6.151.437,7.837-.094a1.576,1.576,0,0,0,.312-2.685c-1-.624-5.838-.094-7.462-.25a5.247,5.247,0,0,1-3.153-9.023c1.717-1.686,4.09-.937,4.683-1.374.437-.312-.187-3,2.373-2.435,1.436.312,1.155,2.342,1.342,2.529h.031Z" transform="translate(-188.417 -12.829)" fill="#d6a902"/></g></g></g></svg>