<svg xmlns="http://www.w3.org/2000/svg" width="79.438" height="93.318" viewBox="0 0 79.438 93.318"><g transform="translate(-0.003 -0.005)"><g transform="translate(0.003 0.005)"><path d="M121.475,203.323l-.438.489c-9.365,2.6-11.883,15.274-3.761,20.936,3.939,2.748,5.894,1.96,9.674-.3l.355.195c1.322.019,2.746,1.638,3.615,2.671a14.453,14.453,0,0,1,2.254,3.635c.531,1.242,1.324,3.269.691,4.448a30.693,30.693,0,0,1,.183,3.279,2.9,2.9,0,0,1,.338,1.071c.083,1.4.282,5.39-.085,6.415a3.525,3.525,0,0,1-.253.531h-22.6l-.338-.579c-.119-2.035-.136-4.526-.083-6.573.129-5.042,1.137-8.783,4.949-12.323a17.225,17.225,0,0,1-2.666-1.22c-.253-.141-1.49-.872-1.543-.945a.7.7,0,0,1-.136-.411c-.514.187-1.453-1.156-1.458-1.641-.828-.565-1.943-1.724-1.641-2.734-1.4-.755-1.957-6.634-1.2-7.43a1.393,1.393,0,0,1,.29-.224c-.484-.545.195-2.585.91-2.734l-.224-.365a17.163,17.163,0,0,1,3.554-4.27l.5.078c-.131-.721,1.911-1.624,2.551-1.276.492-.9,2.162-1.11,3.182-1.222s2.692-.263,3.379.492Z" transform="translate(-80.949 -153.377)" fill="#26a5fd"/><path d="M18.523,234.716a2.3,2.3,0,0,1,2.916.365c.764.407.321.635-.292.857-6.157,3.177-7.892,11.05-2.52,15.877,2.284,2.052,3.579,2.293,6.033.436l.424.144.613-.039c2.42,1.731,4.976,4.762,4.672,7.875.29.046.314.665.183.91a2.233,2.233,0,0,1,0,1.458,3.417,3.417,0,0,1,.258.528,28.4,28.4,0,0,1-.024,6.953,3.714,3.714,0,0,1-.234.536h-17.5L12.7,270.1c-.443-5.37-.158-11.491,4.165-15.274a10.759,10.759,0,0,1-4.4-1.857l-.139-.577c-7.057-6-3.045-17.523,6.2-17.676Z" transform="translate(-6.607 -177.298)" fill="#00c184"/><path d="M235.2,234.847a9.116,9.116,0,0,1,2.551.365q.69.3.351.565c-6.549,3.272-8.759,10.668-3.157,16.011,2.31,2.2,3.4,2.59,6.016.609l.436.127a11.912,11.912,0,0,1,5.655,9.015c.088,1.12.129,8.019-.141,8.62-.112.246-.407.4-.594.589H229.551l-.338-.545c-.414-5.519-.385-11.245,3.978-15.249a12.618,12.618,0,0,1-4.509-1.94l-.044-.487-.572-.017a11.063,11.063,0,0,1-3.262-8.129l.372-.419c-.621-.8.049-2.4.455-3.325a10.442,10.442,0,0,1,6.225-5.616c.952-.316,2.6-.847,3.342-.173Z" transform="translate(-170.075 -177.429)" fill="#00c184"/><path d="M104.758,314.794H98.2c-.066-2.666.088-5.353,0-8.019.078-.5.139-.981.183-1.458a2.108,2.108,0,0,1,0-1.641c-.626-1.19.156-3.235.682-4.5a14.616,14.616,0,0,1,2.237-3.7c.872-1.054,2.3-2.7,3.642-2.729.044.039.414.058.606.2a15.636,15.636,0,0,0,4.492,2.257,15.591,15.591,0,0,0-4.275,5.743c-1.755,4.392-.745,9.229-1.005,13.847Z" transform="translate(-74.255 -221.475)" fill="#0592fb"/><path d="M223.279,308.47a13.917,13.917,0,0,0,2.376,1.361,10.016,10.016,0,0,0,3.092.828,12.921,12.921,0,0,0-4.1,6.011c-.913,3.16-.253,6.756-.455,10.025h-6.378c.073-2.666-.1-5.356,0-8.019a2.768,2.768,0,0,1,.183-2c-.334-2.189.918-4.474,2.315-6.106.728-.85,1.853-2.142,2.97-2.094Z" transform="translate(-164.712 -233.376)" fill="#07b17b"/><path d="M5.723,308.47a10.412,10.412,0,0,0,5.285,2.189,38.059,38.059,0,0,0-2.517,2.858c-2.717,4.034-1.948,8.567-2.04,13.178H.8c-.187-.187-.484-.343-.594-.589-.273-.606-.224-7.15-.141-8.255a11.89,11.89,0,0,1,5.655-9.377Z" transform="translate(-0.003 -233.376)" fill="#07b17b"/><path d="M130.907,31.82q.767.336,0,1.458a3.542,3.542,0,0,1-.214.555,25.7,25.7,0,0,1-4.706,4.531,3.462,3.462,0,0,1-.545.2l-.842-.234a24.141,24.141,0,0,0-13.08-5.307c-.112-.175-.229-.316-.365-.341a11.06,11.06,0,0,0-3.389.051l-.7.409a23.842,23.842,0,0,0-10.517,3.708l-.806.073-.375-.45a10.783,10.783,0,0,0-1.344-4.621l.08-.579-.17-.6c5.027-3.6,10.95-6.719,17.3-6.695a27.652,27.652,0,0,1,4.776.6,33.856,33.856,0,0,1,14.906,7.235Z" transform="translate(-71.064 -18.137)" fill="#fef2dd"/><path d="M261.838,254.679c-.613.5-2.615,1.7-3.323,1.609-1.848-.239-4.46-2.929-5.336-4.521-3.2-5.816-.4-10.992,4.837-13.947.314-.178.523.054.178-.45a10,10,0,0,1,3.644,17.311Z" transform="translate(-190.517 -179.585)" fill="#0ed18f"/><path d="M267.138,133.51c-3.627-.336-6.656-3.73-7.647-7.135-.336-1.154-.835-3.416.175-4.163.11-.088.275-.2.365-.141.708.475,2.279,1.853,2.152,2.712a16.224,16.224,0,0,0-.494,3.072q1.654-.741,3.345-1.458,1.687.7,3.34,1.468-.2-1.793-.458-3.622a25.939,25.939,0,0,1,2.5-2.622,23,23,0,0,0-3.635-.8l-.3-.436q-1.53-5.09-2.819-.061c-.363.854-2.471.979-3.347.935l-.287-.319q-1.132.5-.4-1.207c1.018-3,4.255-6.368,7.505-6.629,10.768,2.057,11.359,17.793,0,20.41Z" transform="translate(-196 -85.568)" fill="#fdd302"/><path d="M46.6,37.454l.511-.022c.273.1,1.969,2.05,1.492,2.391a11.046,11.046,0,0,1,1.641,5.648c.743,1.2-.1,3.45-.716,4.716A10.886,10.886,0,0,1,42.977,55.7l-.572-.212c-3.73.45-7.213-3.63-8.158-6.948-.2-.708-.7-3.411-.3-3.915a.7.7,0,0,1,.438-.253l.414-.093c.747.5,2.3,1.86,2.113,2.783a8.006,8.006,0,0,0-.38,2.907q1.592-.778,3.218-1.509a35.3,35.3,0,0,1,3.321,1.57q-.135-1.859-.331-3.725a31.094,31.094,0,0,1,2.41-2.59q-1.771-.475-3.622-.864a19.978,19.978,0,0,1-1.641-3.063A6.8,6.8,0,0,0,38.4,42.354a1.634,1.634,0,0,1-.509.57,6.019,6.019,0,0,1-3.5.365c-.419-1.018.536-2.8,1.169-3.732,1.4-2.057,3.915-4.238,6.485-4.287a11.435,11.435,0,0,1,4.555,2.186Z" transform="translate(-25.569 -26.685)" fill="#fdd302"/><path d="M218.279,188.817a39.682,39.682,0,0,1-4.555,9.112,9.972,9.972,0,0,0-10.023,9.112l-.385.638a26.5,26.5,0,0,1-6.446,2.663l-.46-.2.049-.679a12.4,12.4,0,0,0,2.24-9.076l.263-.633.463-.682A24.526,24.526,0,0,0,209.67,186.29l.589-.57.55.017a11.039,11.039,0,0,0,7.043,2.729l.424.353Z" transform="translate(-148.596 -140.509)" fill="#fef2dd"/><path d="M30.9,113.023c-3.323,9.879-.769,21.533,5.918,29.71l.278.9-.521.114-1.9-1.147a2.5,2.5,0,0,1-1.41-.974,9.509,9.509,0,0,0-2.916-.365,33.232,33.232,0,0,1-4.01-30.25l.37-.185a13.973,13.973,0,0,0,4.058,1.8l.127.39Z" transform="translate(-18.437 -83.85)" fill="#fee4c1"/><path d="M184.451,24.911c.679.341,1.239.711,1.093,1.641.324.131.351.3.139.555a79.55,79.55,0,0,1-8.336,8.494l-.733.243a19.981,19.981,0,0,1-5.468,5.468,26.591,26.591,0,0,1-6.013,6.013,23.256,23.256,0,0,1-6.2,6.2l.11.407c-.706.842-4.219,4.472-5.037,4.625-1.8.336-2.87-1.543-2.011-2.5a24.24,24.24,0,0,1,4.935-4.538,24.1,24.1,0,0,1,6.2-6.2,4.333,4.333,0,0,1,.26-.606,30.079,30.079,0,0,1,5.156-5.334,4.313,4.313,0,0,1,.6-.256c1.733-1.731,3.678-3.5,5.468-5.285a7.319,7.319,0,0,1,3.279-3.279,1.072,1.072,0,0,1,.066-.587,53.666,53.666,0,0,1,4.73-4.772,1.357,1.357,0,0,1,1.765-.292Z" transform="translate(-114.769 -18.699)" fill="#6e61b5"/><path d="M250.25,111.132a9.138,9.138,0,0,1,1.823.183c-.5.46-1.217.506-1.831.813a11.12,11.12,0,0,0-5.514,6.515c-.093.343-.348.579.236.509a1.992,1.992,0,0,0-.365,1.276c-.626,2.359.275,5.086,1.6,7.057a11.72,11.72,0,0,0,5.874,4.241c-.341.078-1.173.348-1.458.365a11.306,11.306,0,0,1-8.019-3.1c-1.059-.122-1.819-1.612-2.291-2.551a11.121,11.121,0,0,1-.334-9.112c.428-1.042,1.156-2.7,2.259-2.914.226-1.337,2.274-2.337,3.518-2.834a11.023,11.023,0,0,1,3.992-.808.96.96,0,0,1,.506.363Z" transform="translate(-180.933 -83.78)" fill="#f9c500"/><path d="M28.067,34.457a11.254,11.254,0,0,0-6.9,5.767c-.336.728-.472,1.517-.755,2.252a1.8,1.8,0,0,1,0,1.093,8.717,8.717,0,0,0,.755,5.531c1.215,2.661,4.263,5.37,7.262,5.585.112.5-.027.555-.365.183-.519.713-2.9.757-3.761.575l-.248-.392a13.871,13.871,0,0,1-4.555-2C10.7,46.609,16.9,32.088,28.067,34.457Z" transform="translate(-11.596 -25.874)" fill="#f9c500"/><path d="M238.516,69.269a40.171,40.171,0,0,1,6.013,10.205,10.586,10.586,0,0,0-8.019,3.279l-.557-.36a22.288,22.288,0,0,0-4.212-7.014l-.151-.645c1.819-1.823,3.652-3.642,5.468-5.468q1.074-.749,1.458,0Z" transform="translate(-175.211 -52.122)" fill="#fef2dd"/><path d="M255.508,41.555H254.05c2.408-2.42,6.558-6.04,8.477-8.562a2.157,2.157,0,0,0,.453-.733c1.059.336,5.694-.131,6.115.54a.453.453,0,0,1,0,.55l-8.116,8.107c-1.809.175-3.649.095-5.463.095Z" transform="translate(-192.204 -24.408)" fill="#d7ebfd"/><path d="M254.781,3.848l-.319.825-5.3,5.21a9.382,9.382,0,0,1-.207,1.982c-1.1,1.086-2.186,2.191-3.279,3.279V13.685c0-1.069-.185-5.127.173-5.75l7.97-7.883A.82.82,0,0,1,254.3.035c.645.222.467,3.153.475,3.815Z" transform="translate(-185.829 -0.005)" fill="#c3e1fe"/><path d="M105.512,23.94c-5.409.331-12.425,3.452-16.691,6.736-.217.166-.528.163-.438.555a14.291,14.291,0,0,0-2-2.369c1.531-.621,2.919-1.553,4.433-2.218a33.017,33.017,0,0,1,14.7-2.7Z" transform="translate(-65.352 -18.092)" fill="#fee4c1"/><path d="M264.416,15.79a20.156,20.156,0,0,0,.015,2.174,3.573,3.573,0,0,1,.716.195,1.46,1.46,0,0,0-1.013.173c-.949.565-4.453,4.392-5.548,5.477a3.381,3.381,0,0,1-.088-2.184Z" transform="translate(-195.464 -11.947)" fill="#d7ebfd"/><path d="M126.635,94.683a.689.689,0,0,1,.341-.358c.974-.343,6.612,2.305,7.1,3.153a.706.706,0,0,1,.034.484c-2.057,2.067-4.146,4.122-6.2,6.2-.385.234-1.5-.239-1.458-.728l-.64.2c-10.595-1.578-10.473,14.022.2,12.365l.438.19.209-.467a6.368,6.368,0,0,0,3.148-9.049l.1-.506c2.074-2.047,4.129-4.139,6.2-6.2,1.3.482,2.162,2.447,2.7,3.747a15.944,15.944,0,0,1-3.676,17.44c-.969.9-2.459,2.257-3.764,2.137l-.514.09a12.8,12.8,0,0,0-4.28-1.672l-.309-.424a11.179,11.179,0,0,0-6.561.728,1.928,1.928,0,0,1-.411-.019c-.677-.129-2.062-1.823-2.571-2.471a15.669,15.669,0,0,1,4.38-23.266c1.731-1.022,3.469-1.862,5.529-1.575Z" transform="translate(-85.744 -71.34)" fill="#fef2dd"/><path d="M113.441,65.15c-1.974,1.972-3.992,4.168-6.013,6.2-1.84-1.436-5.09-3.325-7.471-3.279a18.656,18.656,0,0,0-9.168,1.726,14.947,14.947,0,0,0-.652,26.292l.343.592a16.264,16.264,0,0,0-3.827,4.555c-1.663-.543-3.092-2.5-4.148-3.946C72.776,83.912,79.86,63.767,95.952,59.726c.134-.18.051-.312-.187-.407.19-.3.691-.183,1-.185A24.671,24.671,0,0,1,113.441,65.15Z" transform="translate(-59.066 -44.723)" fill="#fc4755"/><path d="M142.225,207.176l.519-.066c1.29.514,4.565,5.521,4.5,6.911a.741.741,0,0,1-.278.443,12.785,12.785,0,0,1-2.551,10.388c0,.484-.94,1.821-1.458,1.641a32.141,32.141,0,0,1-3.155,1.672c-2.208.9-3.019.8-5.166-.185-10.551-4.849-8.594-20.191,2.49-22.811a12.919,12.919,0,0,1,5.1,2Z" transform="translate(-96.597 -155.224)" fill="#60b6fe"/><path d="M80.946,59.872c.9-.039,1.926-.037,2.826,0,.222.01.677-.139.635.18-20.257,2.31-28.12,28.476-12.574,41.731a19.05,19.05,0,0,0-.91,2.734c-1.789-.239-3.615-1.935-4.957-3.209C58.948,94.655,56.886,85,59.7,75.888c.173-.56.47-1.4,1.018-1.621.168-.034.285-.161.365-.183A10.316,10.316,0,0,0,68.92,64.062,24.216,24.216,0,0,1,80.946,59.87Z" transform="translate(-44.247 -45.276)" fill="#fa2b3a"/><path d="M49.586,119.082c-.17.711-.562,1.351-.781,2.045a24.014,24.014,0,0,0,10.984,28.205,12.8,12.8,0,0,0,.91,7.654,1.785,1.785,0,0,1-.4.071c-1.319.049-6.159-3.876-6.887-5.356a1.934,1.934,0,0,1-1.641-1.823,32.983,32.983,0,0,1-7.834-24.69,26.879,26.879,0,0,1,1.035-5.344c.124-.336.146-.6.6-.582a15.069,15.069,0,0,0,4.01-.183Z" transform="translate(-33.115 -90.092)" fill="#fef2dd"/><path d="M112.939,95.066c-2.388.044-5.784,1.923-7.566,3.457a15.409,15.409,0,0,0,.643,23.877,15.7,15.7,0,0,0-2.551,1.276,15.247,15.247,0,0,1-6.69-20.267C99.627,97.51,106.432,93.742,112.939,95.066Z" transform="translate(-72.048 -71.723)" fill="#fee4c1"/><path d="M90.328,258.373a30.083,30.083,0,0,0,1.641,2.734c-.806-.363-2.123-.6-3.092-1.008a36.6,36.6,0,0,1-4.2-2.089l-.4-.414a11.084,11.084,0,0,0-1.346-3.939l.11-.567a28.865,28.865,0,0,0,7.289,5.285Z" transform="translate(-62.742 -191.478)" fill="#fee4c1"/><path d="M217.64,338.2a17.3,17.3,0,0,0-.183,2,11.12,11.12,0,0,1-.183-3.279Z" transform="translate(-164.358 -254.9)" fill="#42b2fc"/><path d="M44.94,239.364c.533.623,1.054,1.244,1.641,1.823a11.511,11.511,0,0,1,1.641,4.92,10.475,10.475,0,0,1-3.462,8.564,17.87,17.87,0,0,1-2,1.193c-1.448.677-1.906.368-3.228-.433-7.121-4.316-6.028-14.093,1.361-17.657.312-.151.587.136.219-.414a16.57,16.57,0,0,1,3.827,2Z" transform="translate(-26.28 -179.577)" fill="#0ed18f"/><path d="M97.965,339.308c-.051.158-.112.156-.183,0a8.986,8.986,0,0,0-.183-.91l.365-.728c-.032.54,0,1.1,0,1.641Z" transform="translate(-73.841 -255.467)" fill="#5cbcf6"/><path d="M98.342,345.858c-.015-.48.039-.981,0-1.458h.183C98.52,344.855,98.668,345.554,98.342,345.858Z" transform="translate(-74.4 -260.559)" fill="#32adf0"/><path d="M260.826,134.109c.609-.153,2.654-.117,3.055-.407.56-.4,1.31-4.518,2.563-2.753.321.453,1.173,2.627,1.346,2.753.587.424,4.073.037,3.764,1.193-.136.511-2.383,2.12-2.5,2.619-.161.691.84,3.119.436,3.71-.528.769-2.763-1.3-3.654-1.3-.945,0-2.873,1.9-3.564,1.393-.587-.428.5-3.14.346-3.805-.1-.414-1.792-1.694-2.157-2.13C259.932,134.754,259.981,134.321,260.826,134.109Z" transform="translate(-196.793 -98.74)" fill="#fd7701"/><path d="M35.109,56.2c.845-.438,2.678-.187,3.381-.718.735-.555,1.108-3.391,2.34-3.121.214.046,1.2,2.8,1.648,3.123.721.523,3.761.156,3.754,1.171,0,.565-2.305,2.094-2.461,2.8s1.076,3.846,0,3.854c-.687,0-2.656-1.592-3.291-1.568-.764.029-2.753,1.8-3.367,1.485-.893-.458.37-2.972.153-3.8-.117-.443-1.78-1.685-2.162-2.137-.743-.881-.117-.789,0-1.093Z" transform="translate(-26.292 -39.604)" fill="#fd7701"/><path d="M203.1,100.917a10.636,10.636,0,0,0,.365,14.577,24.845,24.845,0,0,1-11.3,14.032,13.141,13.141,0,0,0-4.737-7.289c8.642-4.143,10.931-16.033,4.737-23.324,2.006-2,4.014-4.01,6.013-6.013,2.376,2.145,3.657,5.151,4.92,8.019Z" transform="translate(-141.802 -70.285)" fill="#fc4755"/><path d="M154.941,132.54c-1.553,1.57-3.043,3.213-4.642,4.74-.5,1.424.579,2.525,1.977,1.8a61.186,61.186,0,0,0,4.669-4.533,6.716,6.716,0,0,1-3.462,10.023c-5.877-1.743-5.911-11,0-12.756a3.317,3.317,0,0,1,1.458.728Z" transform="translate(-112.775 -99.723)" fill="#fc4755"/><path d="M139.413,130.754c-.353.516-.966.6-1.463,1a6.77,6.77,0,0,0-.265,10.478c.538.455,1.3.7,1.726,1.281a6.825,6.825,0,0,1-7.873-2.787,6.725,6.725,0,0,1,7.873-9.967Z" transform="translate(-98.705 -98.665)" fill="#fa2b3a"/><path d="M146.526,267.33c.833-.168,1.47.567,2.322.526.575-.027.879-.428,1.319-.521a1.346,1.346,0,0,1,1.327,2.242c-1.634,1.935-7.177.772-5.811-1.621A1.425,1.425,0,0,1,146.526,267.33Z" transform="translate(-110.056 -202.227)" fill="#0592fb"/><path d="M138.686,245.661a1.408,1.408,0,0,1-2.181-.36c-.282-.66-.331-3.15.453-3.476C139.443,240.794,139.587,244.765,138.686,245.661Z" transform="translate(-103.132 -182.827)" fill="#0593fb"/><path d="M169.507,241.806c.665-.195,1.726.037,1.87.786.212,1.093.287,3.413-1.207,3.5-1.986.11-1.879-3.924-.662-4.282Z" transform="translate(-127.577 -182.891)" fill="#0593fb"/></g></g></svg>