<svg xmlns="http://www.w3.org/2000/svg" width="102.443" height="96.999" viewBox="0 0 102.443 96.999"><g transform="translate(0 0)"><path d="M69.389,34.651A3.851,3.851,0,0,1,71.8,37.267c1.435,1.406,2.936,2.762,4.328,4.219,1.895-1.669,4.277-4.489,6.6-5.465,2.186-.925,4.86-.758,7.185-.765a11.713,11.713,0,0,1,.656,4.751l6.762-4.933.43.182c6.733-.561,14.493.372,15.287,8.554.5,5.173.357,10.485.787,15.673a6.471,6.471,0,0,1-5.611,5.552,1.761,1.761,0,0,1-1.734.474c-1.377.058-3.374.138-4.5-.474-.226.51-.379.51-.6,0l-.648.423c-3.833.211-7.775.342-11.658.168-.619-.029-1.275-.095-1.887-.182a22.6,22.6,0,0,1,.109-4.037c-.612-.525-.022-1.946.328-2.6s1.151-1.887,1.88-1.625l.86-.386c2.434-.386,4.86-.838,7.214-1.348l-.029-.277a5.288,5.288,0,0,1-3.417-.6l-.24.277a8.271,8.271,0,0,0-4.765,2.084l-.634.058-.823.379a10.35,10.35,0,0,0-3.607.831h-.2l-.379.372a16.953,16.953,0,0,1-3.439-.845c.036-1.552,0-2.849-.066-4.372a.311.311,0,0,1,.066-.182c-.08-.08-.146-.087-.2,0,.175.066.175.131,0,.2-3.221,1.421-5.815.845-8.052-1.814-1.231-.291-2.091-2.018-2.412-3.221A11.017,11.017,0,0,1,65.549,43.1a8.289,8.289,0,0,1-3.221-4.43c-.1-.117-.24-.313-.175-.386a48.341,48.341,0,0,1,5.363-4.977l.444.131a1.542,1.542,0,0,1,1.406,1.21Z" transform="translate(-11.394 -6.923)" fill="#f63731"/><path d="M54.948,31.436c-.882-.911-1.625-1.868-2.412-2.772l-.408-.649-.08-15.008A4.469,4.469,0,0,0,48.98,9.7l-.168-.432-.182.425H36.68l-.24-.425c.765.239.415,1.807.138,2.44a3.1,3.1,0,0,1-1.836,1.76q-7.072.208-14.114.046a2.792,2.792,0,0,1-2.456-2.393c-.124-.587-.321-1.737.35-1.861l-.182.425H6.383l-.24-.425-.095.456c-2.12.641-2.966,1.884-3.235,4.146V91.864c-.189,1.3,1.545,3.8,2.718,3.814q21.532.278,43.064.147c1.924-.008,3.461-2.038,3.541-3.976V43.411l.393-.262c.794,1.089,1.618,2.4,2.412,3.412V92.937A6.8,6.8,0,0,1,49.009,98.8H5.939A6.976,6.976,0,0,1,0,92.1V13.625A7.073,7.073,0,0,1,5.567,6.731L49.017,6.7a6.8,6.8,0,0,1,5.88,5.5l.051,19.247Z" transform="translate(0 -1.817)" fill="#222333"/><path d="M116.235,89.963c-.423,3.738-1.778,7.716-2.011,11.469l-.43,3.243a1.385,1.385,0,0,1-1.035.772c-3.92.036-7.84.051-11.76.022a40.518,40.518,0,0,1-4.685-.408,29.986,29.986,0,0,1-8.919.3,1.137,1.137,0,0,1-.729-.78l-.415-3.141c-.233-3.774-1.676-7.746-2.011-11.469l.138-.4h31.609l.248.4Z" transform="translate(-17.392 -19.127)" fill="#f7c41a"/><path d="M92.508,16.188c-.2-.663.117-3.906.692-4.11a24.431,24.431,0,0,0,10.347-.838l.4.131a3.691,3.691,0,0,0,1.567,2.783c-.007.991.015,1.967.073,2.922-.16-2.091,3.024-.765,2.419.714a2.167,2.167,0,0,1-2.026,2.732L106,29.26,98.549,34.7q-.219-2.711-.408-5.436c-.044-.649.073-1.384,0-2.011l.452-.379a7.734,7.734,0,0,0,5.377-2.237c.044-.1-.022-.1-.2,0a5.945,5.945,0,0,1-5.224,2.048c.029.328-.051.481-.408.568-.029-.24-.364-.751-.219-1.188A6.591,6.591,0,0,1,93,21.427c-.452-1.669-.219-3.5-.5-5.239Z" transform="translate(-19.619 -3.049)" fill="#fcbaac"/><path d="M118.585,105.85c-.3,4.787.219,9.873,0,14.69-3.993.015-7.986-.022-11.979-.007-1.486,0-3.06.015-4.518.007l-.423-.131-1.355-10.646.372-.284c5.465.022,10.93-.015,16.395,0,1.326-.248,1-2.652,1.516-3.614Z" transform="translate(-21.752 -23.545)" fill="#4d7cfd"/><path d="M107.166,14.748a1.983,1.983,0,0,0-2.011-1.406v1.406c-1.741-.576-.474-2.31-.845-3.483-.153-.488-2.12-1.479-1.37-2.754-3.425.692-6.973,1.851-10.456.8l-.809,3.825c-.08-.517-.357-.962-.4-1.508-.073-.831.342-2.011.168-2.579-.117-.386-.758-.59-1.064-.955S89.1,6.047,89.46,5.69c.08-.08,1.494.328,1.807-.911-.408-.24-.758-.393-.911-.9-.576-1.8.772-1.3,1.96-1.676,3.133-1.013,4.612-2.528,8.307-2.15,1.6.168,1.924.853,3.068,1.355,1.508.67,3.082.838,4.182,2.259,1.938,2.5,1.173,8.547-.707,11.076Z" transform="translate(-18.786 0.002)" fill="#0e0f16"/><path d="M115.226,87.538c-10.485,0-21.9-.007-32,0-.809-.423-2.157.146-2.528-.991-.27-.831-.379-3.672.714-3.833,1.282-.073,2.507-.168,3.672-.27l.153.27q3.159-.164,6.339-.117a64.383,64.383,0,0,1,14.792.117,1.162,1.162,0,0,0,.794-.408c1.02-.1,5.086-.357,5.662-.058a2.3,2.3,0,0,1,.386.27,3.971,3.971,0,0,0,.692.2,25.09,25.09,0,0,1,3.228,0c.969.182.86,3.4.459,4.088-.5.867-1.625.306-2.375.743Z" transform="translate(-16.383 -18.693)" fill="#f7c41a"/><path d="M97.042,109.471l1.406,11.068c-3.818-.007-7.651,0-11.469,0-.219-4.816.3-9.9,0-14.69.481.853.248,3.257,1.348,3.578,2.9.087,5.807.029,8.707.044Z" transform="translate(-19.534 -23.545)" fill="#234bb9"/><path d="M85.381,60.511a.866.866,0,0,1,.2.488c.007,1.312-.022,2.63,0,3.935,1.246-.029,2.39.546,3.621.6q.973.022.984.853l.35,5.479-.328.707c-.044.153-.1.386-.233.4a33.5,33.5,0,0,1-4.1,0l-.291-.4.4.233v3.5l-.4.291c.175.058.175.124,0,.2a33.489,33.489,0,0,0-3.825,0c1.078-.459,2.47-.08,3.621-.2V72.585c0-.066-.94.036-1.261-.044-3.345-.823-2.164-5.735,1.261-5.188.248-.619-.372-1.137-.408-1.523s.35-.707.423-1.18a19,19,0,0,0-.211-3.935v-.2c.058-.175.124-.175.2,0Z" transform="translate(-18.493 -13.362)" fill="#fcbaac"/><path d="M122.793,76.848v4.226c-2.164-.022-4.583.2-6.842.2-.175-.058-.175-.124,0-.2l.3-.481V77.132c0-.175.109-.262.3-.284,2-.044,4.3.182,6.237,0Z" transform="translate(-25.961 -17.533)" fill="#c51f17"/><path d="M84.233,89.408c0-.146-.087-.43.124-.408h31.755c.211-.022.117.262.124.408a3.674,3.674,0,0,1,0,.4h-32a3.677,3.677,0,0,1,0-.4Z" transform="translate(-17.385 -20.46)" fill="#ef9f14"/><path d="M53.43,44.032V92.923c-.2,2.362-1.625,4.167-3.913,4.384-14.376-.116-28.789.194-43.136-.155a4.527,4.527,0,0,1-3.06-4.229V14.613a4.919,4.919,0,0,1,1.88-3.78,8.544,8.544,0,0,1,1.851-.813H19.423c-.219,1.944.284,3.656,2.3,3.857,4.365.434,9.414-.31,13.852-.054,1.545-.689,1.946-2.115,1.756-3.8H49.706c1.625,0,3.585,2.3,3.672,4.012l.051,15.453c-.255-.287-1.042-.465-1.406-1.286-.5,0-.707-.442-.634-1.3.1-.914.226-4.376-1.042-2.347.2,1.216-1.173,1.479-.736.442l-.379-.6c.233-1.208-.408-4.012-1.829-4.074-4.714-.194-9.866-.294-14.566-.054a2.389,2.389,0,0,0-2.346,2.27c-.095,3.834-.124,7.754-.146,11.588,0,1.046.022,2.084.095,3.122.058,1.572.649,2.525,2.113,2.827,3.483.728,9.822.5,13.451.17a3.375,3.375,0,0,0,3.126-1.851l.474.062c1.29,1.828,2.514,3.757,3.825,5.561Z" transform="translate(-0.901 -2.718)" fill="#fefefe"/><path d="M59.524,27.5l-.59.087L55.9,24.927c-1.763-.306-.649,1.02.109,1.639l2,1.756c.525.9-.955,2.2-1.895,2.4h-.2c-.211-.415,0-.947.634-1.588-1.282-1.1-2.987-2.142-4.707-1.494a3.146,3.146,0,0,1-4.452-.117c-.787-.794-4.445,1.224-4.445,1.53,0,.168,1.435,2.951,2.106,1.822l.393.248c.153.022.379.058.4.182a40.3,40.3,0,0,1,0,5.858l-.4.3c.437-.3.525-.175.3.3,0-.153.036-.386.138-.4a52.241,52.241,0,0,1,7.775,0l.24.4c-.16-.022-.393-.066-.4-.182a41.446,41.446,0,0,1,0-6.164l.4-.291c.08-.612,1.479-.189,1.406.4l.182.466a2.287,2.287,0,0,0,.9,3.272l-.08.488c1.108,1.428,2.128,2.973,3.221,4.43-.86,1.02-1.253,1.792-2.732,2a93.1,93.1,0,0,1-13.677.022c-1.72-.146-2.944-.867-3.119-2.711-.437-4.51.342-9.713.007-14.3a2.7,2.7,0,0,1,2.711-2.521c4.62-.43,9.953.3,14.653.051,2.215.692,2.266,2.791,2.157,4.78Z" transform="translate(-8.76 -4.93)" fill="#e1e9fe"/><path d="M64.993,28.211c.066.044.022.313.4.2-.488-1.6,1.567-2.3,1.792-.692.153,1.093-.24,2.536.219,3.512l-5.633,5.232c-.189-.248-.736-.539-1.006-.911a2.6,2.6,0,0,1,0-3.315c-.284-.284-.16-.4.2-.2a1,1,0,0,1,.6-.6c.561-.663,1.188-1.3,1.807-1.909-.612-.729-3.447-2.7-3.374-3.592.066-.772.925-.925,1.559-.634A44.185,44.185,0,0,0,64.993,28.2Z" transform="translate(-13.615 -5.645)" fill="#fcbaac"/><path d="M94.654,66.541a4.486,4.486,0,0,1-.663,2.142A48.364,48.364,0,0,0,93.5,78l-.255.211a41.447,41.447,0,0,1-6.237,0V74.192h4.627c-.255-1.989-.168-4.161-.415-6.128a1.082,1.082,0,0,0-.59-.918h.2a10.4,10.4,0,0,1,3.592-.831c.087.015.16.109.233.226Z" transform="translate(-19.73 -14.856)" fill="#f63731"/><path d="M96.434,71.871V75.7c3.25-.044,6.514.051,9.771,0,1.355-.022,2.885-.175,4.321-.211.189,0,.3.058.3.226.007,1.246.007,2.47,0,3.716,0,.175-.1.262-.3.284-4.365-1.071-9.1-2.12-13.633-3.111l-.087,2.893c-.036.291-.277.321-.568.219A15.164,15.164,0,0,1,95.8,75.8a23.668,23.668,0,0,1,.342-3.92.431.431,0,0,1,.291-.015Z" transform="translate(-20.528 -16.264)" fill="#c51f17"/><path d="M99.673,60.46c-.372-.525.379-1.042.8-.6a15.309,15.309,0,0,1,4.882-1.064l.35-.146.168-.255a4.152,4.152,0,0,0,1.843.058c1.8.182,3.993-.889,5.837-.8l-.8-12.278.6.5.721,11.986Z" transform="translate(-21.552 -10.08)" fill="#c61f17"/><path d="M103.061,62.487c.845.364.51.634-1.006.8l-.211.415a13.8,13.8,0,0,0-2.609.794,3.677,3.677,0,0,0-.8.6,5.811,5.811,0,0,0-2.215,4.226,2.749,2.749,0,0,0-.219.678c-.189,2.288.168,4.846.015,7.17a.492.492,0,0,1-.6,0c-.066-1.013.095-2.113-.007-3.111-.044-.415-.357-.663-.393-.823-.029-.124.364.022.423-.386.379-2.827-.627-4.605,1.392-7.359-.27-.189-.073-.386.6-.6a7.7,7.7,0,0,1,5.633-2.412Z" transform="translate(-21.502 -13.893)" fill="#110f16"/><path d="M86.338,56.949a.845.845,0,0,1-.211-.481c-.291-2.769.24-6.048.007-8.882-.087-.4.219-.35.5-.3.43.073.109,7.957.109,8.766a4.832,4.832,0,0,1-.211.889h-.2Z" transform="translate(-19.781 -10.651)" fill="#c82019"/><path d="M116.6,76.85v4.226c-.189-.029-.437.036-.6,0V76.85Z" transform="translate(-26.009 -17.542)" fill="#121116"/><path d="M96.68,65.81c-.138.146-.561.539-.6.6-1.268.117-2.55.59-3.825.6-.015-.612.284-.51.7-.6,1.2-.291,2.507-.4,3.723-.6Z" transform="translate(-21.061 -15.117)" fill="#c9211a"/><path d="M109.113,63.1c-.663.627-1.4.219-2.011.2-.576.262-1.924.525-2.412,0l.138-.16c.7-.095,1,.2.867-.641,1.53-.015,2.23.488,3.417.6Z" transform="translate(-23.902 -14.359)" fill="#1e1218"/><path d="M35.037,10.02h6.135c.408,0,.408,1.406,0,1.406H35.335C34.884,11.426,34.767,10.392,35.037,10.02Z" transform="translate(-7.93 -2.718)" fill="#fefefe"/><path d="M32.084,11.408c-1.057,1.057-2.791-.823-1.479-1.778C31.821,8.748,32.995,10.5,32.084,11.408Z" transform="translate(-6.909 -2.546)" fill="#f9f9f9"/><path d="M122.261,92.03a26.985,26.985,0,0,1-.7,5.042c-.284.408-1.967.1-2.521.2.095-.692.393-5.013.627-5.21.182-.153,2.142.066,2.594-.022Z" transform="translate(-26.834 -20.953)" fill="#fefefd"/><path d="M91.523,92.049c.2.175.525,4.525.627,5.21-.634-.117-2.332.313-2.579-.342a26.7,26.7,0,0,1-.641-4.889C89.381,92.115,91.341,91.9,91.523,92.049Z" transform="translate(-20.344 -20.951)" fill="#fefefd"/><path d="M114.677,92.04c-.007.692-.175,5-.423,5.21-.175.153-1.96-.066-2.4.022a33.9,33.9,0,0,1,.2-5.232h2.616Z" transform="translate(-24.883 -20.963)" fill="#fefefd"/><path d="M99.286,92.04l.2,5.232c-.43-.087-2.215.131-2.4-.022-.248-.211-.415-4.518-.423-5.21h2.616Z" transform="translate(-22.141 -20.963)" fill="#fefefd"/><rect width="2.616" height="5.232" transform="translate(80.479 71.076)" fill="#fefefd"/><path d="M106.807,105.569a6.867,6.867,0,0,1-2.237-.117c-.277-.393-.3-4.008.007-4.219a4.042,4.042,0,0,1,2.339.1,15.984,15.984,0,0,1-.117,4.233Z" transform="translate(-23.909 -22.259)" fill="#fefdfa"/><path d="M99.854,101.141l.2,4.43H97.639l-.379-4.11C97.4,100.879,99.351,101.236,99.854,101.141Z" transform="translate(-22.277 -22.261)" fill="#fefefd"/><path d="M92.724,101.157l.408,4.423c-.568-.1-2.193.277-2.383-.335a23.81,23.81,0,0,1-.43-4.1h2.412Z" transform="translate(-20.68 -22.269)" fill="#fefefc"/><path d="M113.719,105.571H111.3l.2-4.43c.554.095,2.237-.219,2.528.2.124.175-.437,3.636-.313,4.233Z" transform="translate(-24.734 -22.26)" fill="#fefefd"/><path d="M121.03,101.14a22.941,22.941,0,0,1-.488,4.241c-.262.386-1.814.109-2.332.189a30.583,30.583,0,0,1,.415-4.416c.117-.117,2,.058,2.4-.015Z" transform="translate(-26.609 -22.259)" fill="#fefefc"/><path d="M101.148,24.66a2.516,2.516,0,1,1-5.028,0Z" transform="translate(-21.918 -5.648)" fill="#fefefe"/><path d="M106.1,29.63c-1.647,1.865-3.2,2.842-5.837,2.616V31.24a7.347,7.347,0,0,0,5.633-1.61h.2Z" transform="translate(-22.823 -6.786)" fill="#eba090"/><path d="M102.6,18.569c.554.6.2,2.3-.729,1.734C101.306,19.954,101.75,17.644,102.6,18.569Z" transform="translate(-23.345 -4.979)" fill="#17161c"/><path d="M96.545,18.574c.43.27.3,2.412-.751,1.756C95.364,20.06,95.5,17.918,96.545,18.574Z" transform="translate(-21.956 -5.005)" fill="#14141a"/><path d="M108.194,29.332h-.2c.226-.2.408-.721.8-.8.124.481-.393.568-.6.8Z" transform="translate(-23.836 -6.558)" fill="#f3ab9c"/><path d="M108.131,81.3v.2c-7.039-.015-14.092-.066-21.131,0v-.2c2.048-.095,4.2.124,6.237,0a4.16,4.16,0,0,0,.6,0c.5-.189-.036-3,.306-3.621,4.08,1.151,8.554,1.61,12.562,2.929.452.146,1.159.634,1.421.692Z" transform="translate(-18.14 -17.747)" fill="#f63831"/><path d="M88.817,69.248l-1.807.4V68.84Z" transform="translate(-19.968 -15.825)" fill="#f74841"/><path d="M10.642,22.71c4.685.306,10.267-.568,14.843-.044A2.692,2.692,0,0,1,28,25.18c-.335,4.583.444,9.786.007,14.3-.175,1.843-1.406,2.565-3.119,2.711a98.766,98.766,0,0,1-13.3,0,3.02,3.02,0,0,1-3.111-2.922,95.3,95.3,0,0,1,0-13.684,3,3,0,0,1,2.157-2.871Z" transform="translate(-2.234 -4.923)" fill="#e1e9fe"/><path d="M22.275,92.869c6.252.248,13.072-.532,19.266-.066,6.959.525,7.935,8.955,1.384,10.857L20.9,103.588a5.468,5.468,0,0,1,1.377-10.719Z" transform="translate(-4.598 -19.963)" fill="#1ba975"/><path d="M41.961,55.844c4.787.335,10.587-.6,15.251-.051,1.537.182,2.2,1.734,2.317,3.119a98.149,98.149,0,0,1,0,13.094c-.153,1.756-.853,2.944-2.718,3.119-4.591.43-9.837-.342-14.5,0a2.619,2.619,0,0,1-2.317-2.711c-.4-4.554.321-9.684,0-14.3a2.7,2.7,0,0,1,1.96-2.266Z" transform="translate(-8.758 -12.183)" fill="#e1e9fe"/><path d="M10.449,55.9l15.258-.044a2.647,2.647,0,0,1,2.317,2.317c-.335,4.6.43,9.771,0,14.3a2.691,2.691,0,0,1-2.317,2.711c-4.656-.35-9.932.444-14.5,0-1.843-.175-2.565-1.406-2.711-3.119A96.205,96.205,0,0,1,8.5,58.782,3.211,3.211,0,0,1,10.456,55.9Z" transform="translate(-2.244 -12.245)" fill="#e1e9fe"/><path d="M56.847,32.384l-.4.6c-.051.066-.146.117-.2.2l-1.406-.4V39.43H46.69a3.849,3.849,0,0,1-.3-.3V32.792c-.364.175-.976.6-1.37.364A13.488,13.488,0,0,1,43.36,30.49c1.7-.867,2.987-2.3,5.1-1.676.546.16.947.94,2.062.976,1.2.036,1.683-.8,2.448-.976,2.026-.459,3.549.685,5.05,1.865a16.791,16.791,0,0,1-1.166,1.712Z" transform="translate(-9.667 -6.442)" fill="#7d9be2"/><path d="M61.921,33.77c-.2.233-.5.474-.6.6-.073-.4.291-.459.4-.6h.2Z" transform="translate(-14.101 -7.766)" fill="#e4e0f0"/><path d="M106.042,63.577c.117.6-.291.357-.663.43-1.516.291-3.038.583-4.569.772a5.493,5.493,0,0,1,2.82-1.21,14.808,14.808,0,0,1,2.412,0Z" transform="translate(-22.977 -14.588)" fill="#f13630"/><path d="M16.735,38.11H15.321c.4-2.514-1.093-5.509-1.151-7.8-.015-.634.583-2.725,1.246-2.8,1.479-.175,3.519,4.43,4.838,5.567C22,34.569,26.28,35.3,27.206,36.587c.35.481.372,1.392-.313,1.523a29.369,29.369,0,0,1-5.858-.182c-.925-.4-2.273-4.292-3.4-4.2-.925.073-.984,3.709-.9,4.387Z" transform="translate(-3.845 -6.183)" fill="#7d9be2"/><path d="M53,72.155c-.452-.146-1.049-4.022-1.275-4.758-.087-.27-.073-.612-.43-.678l-1.21,5.436H46.159a3.85,3.85,0,0,1-.3-.3V62.8a3.85,3.85,0,0,1,.3-.3H56.418a3.849,3.849,0,0,1,.3.3v9.057a3.85,3.85,0,0,1-.3.3A26.658,26.658,0,0,1,53,72.155Z" transform="translate(-10.323 -14.087)" fill="#7d9be2"/><path d="M25.221,66.758c.437.138-.138,1.326-.182,1.734-.255,2.528,2.681,5.917-1.333,6.317a57.027,57.027,0,0,1-7.651.015c-4.43-.321-1.588-3.294-1.574-5.778a7.534,7.534,0,0,0-.444-1.858c-.051-.219-.219-.321.124-.423a21.858,21.858,0,0,1,5.079-.4h4.226a2.787,2.787,0,0,0,1.763.4Z" transform="translate(-3.682 -14.996)" fill="#7d9be2"/><path d="M14.37,65.145c.248-.437,1.494-.08,1.61-.2.066-.066,0-1.275.138-1.778.94-3.629,6.427-3.694,7.52-.146.182.583.117,1.858.189,1.924.117.124,1.363-.24,1.61.2H14.37Z" transform="translate(-3.899 -13.773)" fill="#7e9ce2"/><path d="M20.5,69.953c.5-.153,2.572-.255,2.281.67-.131.423-1.9.386-2.281.27a.489.489,0,0,1,0-.94Z" transform="translate(-5.466 -16.048)" fill="#dee7fd"/><path d="M23.926,65.277H17.689C17.506,60.417,24.013,60.446,23.926,65.277Z" transform="translate(-4.799 -14.089)" fill="#e1e9fe"/></g></svg>