<svg xmlns="http://www.w3.org/2000/svg" width="91.846" height="96.998" viewBox="0 0 91.846 96.998"><g transform="translate(0 0)"><path d="M12.5,38.568a.851.851,0,0,1,.6.4l.772.109a70.757,70.757,0,0,0,6.653,4.051,21.351,21.351,0,0,0-.087-3.862l.306-.5c-.087-.073-.022-.138.2-.2,3.716.015,8.168-.321,11.782,0a4.728,4.728,0,0,1,4.219,3.024c1.093,2.616,1.537,5.939,2.521,8.649l.6-.087,9.05-4.335c.146-.058.379-.124.423-.036a52.161,52.161,0,0,1,3.068,7.1l-.277.379c-4.663,2.783-9.626,7.9-14.311,10.34a5.215,5.215,0,0,1-5.611-.277.948.948,0,0,1-.182-.9c0-.044.146.758-.219.692,0,.933-.015,2.062,0,3.017l.393.379q-.984,3.793-2.171,7.549l-.43.321c-.066.175-.131.175-.2,0a2.341,2.341,0,0,1-.8-.4,122.026,122.026,0,0,1-19.477-6.58c-4.678-1.989-6.3-5.6-7.287-10.281l-.6-3.862C1.269,50.933.169,48.653.023,46.328c-.168-2.842.743-7.272,4.153-7.738,2.332-.321,5.851,0,8.336-.015Z" transform="translate(-0.004 -10.404)" fill="#f63731"/><path d="M73.57,116.84l-.5-1.122q-2.273-10.525-3.767-21.2l.044-1.224h37.941c1.1.087,2.04.291,2.3,1.523-1.122,6.427-1.588,13.276-2.871,19.645-.16.8-.189,1.581-.962,2.055l-32.185.321Z" transform="translate(-18.771 -25.27)" fill="#4d7cfd"/><path d="M97.5,33.988C112.7,33.6,119.955,52.7,108.3,62.5c-1.829,1.537-4.663,2.23-5.837,3.221-1.268,1.064-2.565,3.425-3.811,4.642-.153.146-.335.444-.59.386-.342-.073-3.578-4.5-4.241-5.028C76.134,60.919,79.048,34.454,97.5,33.988Z" transform="translate(-22.216 -9.2)" fill="#f7c41a"/><path d="M4.586,100.237l.656-.211q9.378.262,18.7.138l.561.277.029.452c-1.516.066-2.995.175-4.43.313l-2.732,14.471c.1.423,0,.707-.321.86-.35.2-.335.561-.408.9-.488,2.091-.707,4.255-1.2,6.347H1.97V99.836a1.384,1.384,0,0,1,1.9.277Z" transform="translate(-0.538 -26.978)" fill="#222333"/><path d="M4.2,92.567c.044-2.215.612-10.959,1.639-12.4a2.248,2.248,0,0,1,2.791-1.027c1.319.27,2.623.583,3.927.947,5.676,1.588,11.382,3.272,16.963,5.115a1.514,1.514,0,0,1,1.21.2c.066.015.138-.015.2,0,.211-.794,2.4.27,2.368.619a30.6,30.6,0,0,0-.153,7.432,2.091,2.091,0,0,1-.2.8,1.818,1.818,0,0,1-.284.335c-.612.532-5.684.678-6.857.641l-.7-.364c-3.2-.058-6.368.226-9.567.211-3.359-.022-7-.117-10.354-.408-1.166.036-1.465-.765-.6-1.406" transform="translate(-1.11 -21.41)" fill="#f63731"/><path d="M37.939,99.927c.022,7.979-.015,15.965,0,23.944H24.152c-.168,0-.357-.6-.415-.794a39.769,39.769,0,0,1-1.1-6.449,3.378,3.378,0,0,1-.066-.976l2.776-14.733c.27-.386,3.512-.146,4.248-.182a1.014,1.014,0,0,0,.488-.211,51.325,51.325,0,0,0,7.848-.6Z" transform="translate(-6.113 -27.069)" fill="#0e0f16"/><path d="M14.189,24.714a11.232,11.232,0,0,1-4.561-.772c-5.217-2.266-1.319-8.234-.889-12.03.248-2.179-.284-3.825.284-6.157S11.2,1.244,13.694.967c1.1-.124,2.368.3,3.2.2A17.324,17.324,0,0,0,18.867.3C24-1.3,28.85,3.59,30.664,7.933c.692,1.661,2.04,5.837-1.18,4.7.772,2.23,2.769,5.895,1.618,8.154s-5.479,3.789-7.855,3.92c-1.6-.561-.1-1.3,1.035-1.53,4.314-1.7,4.532-6.638,4.226-10.631a10.392,10.392,0,0,1-4.066-5.735,29.07,29.07,0,0,1-9.2,6.449l-.853-.029c.124.372-.08.437-.6.2l-.095.452c-1.924.641-1.312,3.512.7,3.847,0,0,.117.925.138,1.035a13.686,13.686,0,0,1,.306,1.559c.124,1.261.153,3.468-.649,4.379Z" transform="translate(-1.885 0.008)" fill="#0e0f16"/><path d="M61.188,82.2a3.226,3.226,0,0,1,2.317,1c1.129,1.18,1.567,5.283,1.9,7.046,1.508,7.818,2.623,15.746,4.226,23.543.131.634.08,1.741.707,1.814h32.607c2.594-.022,3.089,3.345.393,3.621H69.932A3.545,3.545,0,0,1,66.515,116l-5.552-30.37-5.414-.022a1.892,1.892,0,0,1-.284-1.5,6.4,6.4,0,0,1-.444-2.04q3.192-.033,6.361.124Z" transform="translate(-14.842 -22.224)" fill="#6b7993"/><path d="M29.338,79.5c.109.146-.029.211-.4.2-7.068-1.45-13.553-4.022-20.322-5.538-1.895-.423-2.805-.43-3.366,1.669-.78,2.944-.976,8.467-1.268,11.709.175.066.175.131,0,.2a2.327,2.327,0,0,1-.2,1.2l.809.2a15.132,15.132,0,0,1-2.616-.4c0-9.545.7-20.643,0-29.984,1.829,5.96,1.6,10.959,8.052,13.779,5.88,2.572,13.167,4.809,19.317,6.944Z" transform="translate(-0.538 -15.917)" fill="#c51f17"/><path d="M43.128,76.238c1.2.087,2.623-1.333,3.512.015.707,1.078-.138,1.741-.9,2.4a29.034,29.034,0,0,1,3.789.743c.539.2,1.02.721,1.392.823,1.807.481,4.627-.423,6.492.248-2-.175-4.212.124-6.237,0a4.082,4.082,0,0,1,.6,3.417,4.326,4.326,0,0,1-1.2,2.12c-2.4,2.069-4.926-.291-7.447-.707v7.243a1.419,1.419,0,0,1-.219-.678c-.015-2.208.036-4.423.022-6.631a4.293,4.293,0,0,0-2.018-.736c.138-2.543,2.244-5.807,2.215-8.248Z" transform="translate(-11.092 -20.501)" fill="#fcbaac"/><path d="M70.641,54.961,67.42,47.515c.678-.6.882-3.192,2.215-2.521.714.364.364,1.406,0,1.916.27.219,4.627-2.048,5.385-2.179,1.282-.219,1.931,1.122.758,1.982-.532.393-2.842,1.1-3.038,1.4-.27.43.619,2.084.7,2.732.284,2.2-.758,3.483-2.8,4.11Z" transform="translate(-18.276 -12.111)" fill="#fcbaac"/><path d="M17.2,24.764a8.181,8.181,0,0,0,3.643,5.2c.816.437,1.851.481,2.477,1.042a25.906,25.906,0,0,1-6.237.408h-.2a38.028,38.028,0,0,0,.131-6.638c.058-.175.109-.175.182,0Z" transform="translate(-4.583 -6.673)" fill="#eb9f90"/><path d="M43.871,67.966a4.993,4.993,0,0,1-.211-.889c0-3.5.015-6.988.007-10.478l.4-.3c.16,2.31.109,4.634.2,6.951.058,1.537.554,3.388.007,4.918-.124-.08-.277-.124-.4-.2Z" transform="translate(-11.837 -15.253)" fill="#cb221a"/><path d="M31.373,67.794c.27.262.16.291-.2.2-3.971-1.749-7.95-3.476-11.87-5.334a63.678,63.678,0,0,1-2.419-8.343c.058-.175.124-.175.2,0,.372,1.173,2.164,7.512,2.623,7.942l11.666,5.545Z" transform="translate(-4.583 -14.68)" fill="#c72018"/><path d="M36.7,72.86l2.616,1.406a8.9,8.9,0,0,1-2.813-1.2l.2-.2Z" transform="translate(-9.896 -19.743)" fill="#d2251e"/><path d="M16.846,53.535h-.2c-.036-.131-.984-2.208-.5-2.215.277.721.474,1.479.707,2.215Z" transform="translate(-4.345 -13.905)" fill="#da2922"/><path d="M40.19,87.618c-.393-.073-.751-.109-1.21-.2l.4-.2c.284.1.619.058.8.4Z" transform="translate(-10.569 -23.633)" fill="#d92921"/><path d="M91.131,113.771c-.714.714-1.792.109-1.953-.867-.525-3.177.182-7.92-.219-11.265a1.03,1.03,0,0,1,2.018-.189c.43,2.324.153,5.246.2,7.651.015.94.6,4.037-.036,4.671Z" transform="translate(-24.116 -27.28)" fill="#fefefe"/><path d="M99.418,113.77c-.641-.641-.058-3.913-.036-4.875.044-2.346-.226-5.181.2-7.447a1.029,1.029,0,0,1,2.018.189c-.357,3.4.226,7.782-.226,11.061-.146,1.071-1.1,1.924-1.946,1.078Z" transform="translate(-26.869 -27.279)" fill="#fefefe"/><path d="M78.729,100.777c1.246-.372,1.5.488,1.647,1.494.4,2.74.729,6.653.838,9.429.029.772.248,2.157-.721,2.324-1.384.233-1.326-1.086-1.472-2.135-.393-2.747-.743-6.653-.838-9.422-.022-.576-.131-1.472.554-1.676Z" transform="translate(-21.189 -27.278)" fill="#fefefe"/><path d="M110.88,113.779a1.271,1.271,0,0,1-1.581-.036,5.077,5.077,0,0,1-.189-2.237,94.048,94.048,0,0,1,.867-9.4c.131-.816.27-1.435,1.253-1.377,1.049.058.947.918.918,1.734-.1,2.776-.459,6.47-.816,9.247a8.064,8.064,0,0,1-.444,2.069Z" transform="translate(-29.565 -27.287)" fill="#fefefe"/><path d="M98.264,42.229c16.22-2.193,15.666,22.61.036,20.184-11.221-1.741-10.821-18.726-.036-20.184Z" transform="translate(-24.396 -11.4)" fill="#fefefe"/><path d="M30.742,14.466c-2.157-1.763-3.957-3.876-4.19-6.776L25.35,9.4a32.557,32.557,0,0,1-9.057,5.931l-.6.2c-.175.087-.43.066-.67.226a2.423,2.423,0,0,0,1.392,4.4V20.15c.029.138.051.277.087.415-.211,2.645,2.266,5,4.693,5.64a22.983,22.983,0,0,1-4.19.219l-.707.386c.146.984-.2,2.528,0,3.417,2.361,1.953,5.96,3.651,8.452,5.436-.087-1.734-.2-8.853-.2-8.853.2-.007.4.015.6,0l-.4-.7c5.851-1.115,6.536-6.572,6-11.637Z" transform="translate(-3.792 -2.081)" fill="#fbbaac"/><path d="M31.511,25.36c-.248,3.643-5.341,3.738-5.232,0Z" transform="translate(-7.125 -6.868)" fill="#fefdfd"/><path d="M25.944,19.482c-.211-.5-.5-1.53.284-1.6C27.423,17.769,27.328,19.868,25.944,19.482Z" transform="translate(-6.972 -4.845)" fill="#131319"/><path d="M32.564,19.481c-.211-.138-.5-1.53.284-1.6C34.261,17.754,33.547,20.152,32.564,19.481Z" transform="translate(-8.766 -4.844)" fill="#131219"/><path d="M99.988,44.749c10.281-1.078,12.693,13.961,2.871,16.351-11.433,2.783-14.391-15.141-2.871-16.351Z" transform="translate(-25.115 -12.106)" fill="#f7c41a"/><path d="M103.222,49.378c.073.08-.08.925,0,1.006s2-.007,2.208.707c.2.962-1.975.058-2.215.3l-.015,2.5c1.61.342,3.017,1.239,2.273,3.082-.6,1.479-2.638.568-2.259,2.164-.94.517-.678-.67-.838-.867-.146-.175-2.244-.284-2.383-.94-.233-1.137,2.354.255,2.419-.211-.095-.437.124-2.31-.022-2.485-.262-.3-2.361-.066-2.332-2.1.029-1.873,2-1.814,2.317-2.186.109-.131,0-.554.131-.765a.684.684,0,0,1,.707-.2Z" transform="translate(-27.096 -13.368)" fill="#ee9b13"/><path d="M104.419,59.329c.058-.6-.087-1.333,0-1.916.036-.27-.109-.357.3-.3C106.409,57.354,106.081,59.416,104.419,59.329Z" transform="translate(-28.293 -15.47)" fill="#f7c41a"/><path d="M102.812,52.148c-.058.6.087,1.326,0,1.916-.036.27.109.357-.3.3A1.121,1.121,0,1,1,102.812,52.148Z" transform="translate(-27.494 -14.128)" fill="#f7c31a"/></g></svg>