<svg xmlns="http://www.w3.org/2000/svg" width="112.621" height="112.419" viewBox="0 0 112.621 112.419"><g transform="translate(0.006 0.003)"><g transform="translate(-0.006 -0.003)"><path d="M116.895,138.7l.46.221v60.1l-.46.285a9.579,9.579,0,0,1-6.2,0l-.46-.163.012-39.439a2.5,2.5,0,0,0-1.767-2.257c-5.064-.064-10.271-.107-15.427-.15-2.469-.018-4.929-.23-7.382-.463a3.988,3.988,0,0,1-3.214,0,42.067,42.067,0,0,1-11.937,0,3.988,3.988,0,0,1-3.214,0,42.067,42.067,0,0,1-11.937,0,3.988,3.988,0,0,1-3.214,0q-11.046.741-22.132.457a7.774,7.774,0,0,0-2.432,1.15,2.963,2.963,0,0,1-.245,1.718l.015,38.865-.46.282a19.216,19.216,0,0,1-8.723,0V138.7l.221-.46H116.61l.288.46Z" transform="translate(-12.602 -95.841)" fill="#e2f0fe"/><path d="M66.2,62.891a4.469,4.469,0,0,1,0,4.131l.46.258c-.117,1.408-.328,5,1.773,5.015q24.314-.064,48.618.2l1.951.27q1.7-.138,3.444-.23l.129-.528q2.162-1.376,1.5-4.671l.439-.31a2.707,2.707,0,0,1-.807-1.92,3.01,3.01,0,0,1-.574-1.981c-.141-.15-.255-.436-.138-.5.8-.463,6.3-.233,7.6-.153l1.031.423.46.212V79.839l-.46.273q-37.641,1.031-75.3,0V62.894l.672-.4q4.283,0,8.572-.11l.629.5Z" transform="translate(-39.045 -43.222)" fill="#84c9fe"/><path d="M89.856.486c1-.046,1.411.583,1.831,1.4,1.322,5.505,6.9,6.662,11.716,5.723-.009-.1,0-.19.117-.227,3.457-.221,4.88-2.466,6.772-4.824.813-.85,1.865-.245,2.708.316a41.335,41.335,0,0,1,3.966,3.963l-.015.54.1.3c-3.444,2.674-.485,3.944,2.076,1.81l.586.184a2.232,2.232,0,0,1,1.724,1.009,1.911,1.911,0,0,1,1.261,1.058c-.061.518-.442.926-1.138,1.215-1.819,3.438,2.046,1.81,3.634.607l.491.242.537-.123a121.183,121.183,0,0,0,12.069,5.165,6.8,6.8,0,0,1,3.3,2.858c.359.635,1.021,1.932.4,2.429-.064.2-.141.2-.23,0q-19.051.676-38.111,0l-.653-.393c-2.518-5.564-8.9-7.806-14.62-8.085l-.567-.478a.657.657,0,0,1,0-1.147c.015-3.26-.457-8.615.012-11.581A2.682,2.682,0,0,1,89.862.48Z" transform="translate(-60.635 -0.332)" fill="#fe5471"/><path d="M23.651,119.058q37.646-.055,75.3,0c.187-.73,2.506-.7,2.754,0,4.4,0,8.805-.049,13.2,0,.39,0,1.021-.147,1.261.233-.187.73-2.506.7-2.754,0,.748.337.718,3.156,0,3.558.923.877-.871,1.865-1.837,1.951-.132.607-.5.58-.917.23H11.944c-.926.08-2.754-1.349-2.754-2.181v-3.788c4.818-.006,9.646.006,14.464,0Z" transform="translate(-6.37 -82.171)" fill="#8f9bd0"/><path d="M14.441,336.1a144.386,144.386,0,0,1,25.254,0,3.988,3.988,0,0,1,3.214,0,41.957,41.957,0,0,1,11.937,0,3.988,3.988,0,0,1,3.214,0A41.957,41.957,0,0,1,70,336.1a3.988,3.988,0,0,1,3.214,0,118.471,118.471,0,0,1,22.27,0,2.425,2.425,0,0,1,2.754,0c2.061.012,4.137-.037,6.2,0a2.172,2.172,0,0,1,2.754,0c.635,1.23,5.3,4.849,5.508,5.738l-.221.46H.5l-.285-.46c.205-.889,4.873-4.509,5.508-5.738C8.623,336.087,11.54,336.115,14.441,336.1Z" transform="translate(-0.144 -232.633)" fill="#5d689d"/><path d="M112.552,356.06c.2.84-.141,2.285,0,3.214H.057c.141-.929-.2-2.374,0-3.214H112.549Z" transform="translate(0.006 -246.855)" fill="#3d4a75"/><path d="M340.957,137.971q1.578-.893,2.3,0l-.475.782.015,60.055c-.914-.012-1.84.018-2.754,0V138.2c.267-.3.583-.206.917-.23Z" transform="translate(-235.748 -95.345)" fill="#b6dafe"/><path d="M257.031,44.9c-.187.73-2.506.7-2.754,0,.748.337.718,3.156,0,3.558.923.874-.871,1.865-1.837,1.951.021.644-.567.742-.917.23-2.371.117-4.846-.028-7.235,0-.39,0-1.021-.147-1.261.233l-.58.031a25.477,25.477,0,0,0-8.916-3.883,9.409,9.409,0,0,1-4.282-2.346l27.778.23Z" transform="translate(-158.937 -30.969)" fill="#909bd0"/><path d="M59.987,44.67v1.147a1.424,1.424,0,0,1,0,1.837,2.816,2.816,0,0,1,0,2.984c-3.107-.276-6.846.374-9.873,0-.8-.1-2.754-1.123-2.754-1.951V44.67Z" transform="translate(-32.833 -30.969)" fill="#909bd0"/><path d="M217.321,40.961C218.671,41.6,220,42.2,221.4,42.74c2.815,1.095,7.882,2.1,9.7,4.42a6.515,6.515,0,0,1,1.377,3.9c-.021.178-.077.442-.205.46a16.624,16.624,0,0,1-3.775-.153.659.659,0,0,1-.153-.307,7.467,7.467,0,0,0-1.491-3.217c-1.8-2.135-9-4.1-11.98-5.465a9.532,9.532,0,0,1-2.828-1.647c0-.782,1.346-1.6,2.067-1.377,1.049.62,2.116,1.089,3.214,1.607Z" transform="translate(-147.005 -27.26)" fill="#f13353"/><path d="M302.787,62.46c.935-.543,1.546-.543,1.837,0V79.908H301.87V62.69A4.847,4.847,0,0,1,302.787,62.46Z" transform="translate(-209.284 -43.02)" fill="#4eb0fb"/><path d="M161.89,3.3c.61-.764.641-1.15,1.782-1.546,3.328-1.15,5.392,3.018,7.4,4.99.42.837-1.892,1.825-2.524,1.377C166.264,6.7,164.917,2.956,161.89,3.3Z" transform="translate(-112.236 -1.078)" fill="#f13353"/><path d="M108.814,7.27c0,.037.2.126.233.224-3.361.883-8.109.589-10.563-2.178C97.03,3.675,97.221,1.375,95.27.151,99-.778,98.984,2.719,100.781,4.626c1.951,2.07,5.272,2.84,8.033,2.641Z" transform="translate(-66.049 0.003)" fill="#f13353"/><path d="M184.188,20.764a2.042,2.042,0,0,1-2.3,1.377c-1.141.659-2.981,2.122-4.15,1.052-1.491-1.365.261-2.625,1.4-3.346a12.385,12.385,0,0,0,2.524-1.377c.595.583,1.862,1.724,2.524,2.3Z" transform="translate(-122.828 -12.804)" fill="#fbda35"/><path d="M202.662,35.088a12.429,12.429,0,0,1-2.067,1.377c-1.248.73-4.944,3.263-5.061.34-.058-1.478.981-1.748,2.076-2.4a1.628,1.628,0,0,1,2.067-1.147c.745.54,2.141,1.337,2.984,1.837Z" transform="translate(-135.561 -22.994)" fill="#fbda35"/><path d="M347.624,121.02c.015,2.1.5,5.168-2.3,5.508-.715.089-1.558-.055-2.3,0,.543-.307,1.837-1.319,1.837-1.951V121.02h2.754Z" transform="translate(-237.821 -83.902)" fill="#7986bf"/><path d="M309.451,45.42c-.021,2.641.61,5.192-2.754,5.508-.6.055-1.233-.046-1.837,0,.543-.307,1.837-1.319,1.837-1.951V45.42Z" transform="translate(-211.357 -31.489)" fill="#7986bf"/><path d="M197.631,28.247c-.662.417-1.4.748-2.067,1.147a5.576,5.576,0,0,1-2.984-2.067c.77-.445,1.494-.985,2.3-1.377C195.647,26.612,196.858,27.689,197.631,28.247Z" transform="translate(-133.514 -17.99)" fill="#f13453"/><path d="M71.825,203.373q.676,20.316,0,40.635c-8.413.009-16.841-.046-25.254,0l-.009-38.92a2.781,2.781,0,0,1,.7-1.944l.62-.423q11.837.055,23.668.19l.276.463Z" transform="translate(-32.274 -140.545)" fill="#fecdbf"/><path d="M262.106,241.342c-.917-.006-1.84,0-2.754,0l-.46-.159.009-37.365c-.074-1.877-1.484-2.457-3.141-2.647h-18.4l-.276-.46c-.7-.092-.672-1.684,0-1.837,7.382.015,14.771-.012,22.153,0a3.024,3.024,0,0,1,2.88,2.858l-.012,39.613Z" transform="translate(-164.012 -137.875)" fill="#fcaf9f"/><path d="M131,198.87c.7.092.672,1.684,0,1.837q.676,20.316,0,40.635h-3.214V200.707c-.7-.092-.672-1.684,0-1.837Z" transform="translate(-88.234 -137.876)" fill="#f19888"/><path d="M180.409,198.87c.7.092.672,1.684,0,1.837q.676,20.316,0,40.635H177.2q-.676-20.316,0-40.635c-.7-.092-.672-1.684,0-1.837Z" transform="translate(-122.49 -137.876)" fill="#f19887"/><path d="M229.68,198.87v1.837q.676,20.316,0,40.635h-3.214c-.181,0-.457-.049-.46-.159-.15-13.176-.15-26.784,0-39.963l.46-.282c-.705-.1-.684-1.889,0-2.067Z" transform="translate(-156.609 -137.876)" fill="#f19887"/><path d="M73.424,198.863V200.7l-24.564-.23a2.71,2.71,0,0,1,2.411-1.607c7.385-.012,14.774.015,22.153,0Z" transform="translate(-33.873 -137.868)" fill="#fcafa0"/><path d="M200.777,198.865v2.067l-.218.454-11.455-.221-.264-.463v-1.837C192.815,198.868,196.8,198.859,200.777,198.865Z" transform="translate(-130.921 -137.871)" fill="#fcafa0"/><path d="M151.377,198.865V200.7c-.018.181-.083.454-.209.46-3.631.144-7.821.141-11.455,0l-.273-.46v-1.837C143.415,198.859,147.4,198.868,151.377,198.865Z" transform="translate(-96.672 -137.871)" fill="#fcafa0"/><path d="M102.2,76.3c.15-.739,1.751-.641,2.067,0h38.111l.524.242c.276,1.638.638,4.631-1.215,5.269a.753.753,0,0,1-.46.23c-16.85.356-33.749-.251-50.606-.015-2.849-.644-2.15-3.484-2.2-5.726.018-.181.086-.454.215-.46,3.68-.141,8.008-.169,11.688,0a2.1,2.1,0,0,1,1.874.46Z" transform="translate(-61.276 -52.496)" fill="#fefefe"/><path d="M102.281,60.545H88.507c-.028-1.374.012-2.757,0-4.131-.009-.994.006-1.99,0-2.984L89.139,53a19.015,19.015,0,0,1,10.146,3.533c1.193.9,3.156,2.506,2.993,4.015Z" transform="translate(-61.354 -36.744)" fill="#5d689d"/><path d="M267.241,77.6c.144,2.184.374,4.794-2.067,5.508a8.942,8.942,0,0,1-2.984,0c1.205-1.488,1.116-3.748.69-5.508Z" transform="translate(-181.774 -53.799)" fill="#e2f0fe"/><path d="M261.15,95.53c.988-.055,2,.04,2.984,0a12.08,12.08,0,0,1-3.444.23C260.751,95.539,260.954,95.542,261.15,95.53Z" transform="translate(-180.734 -66.218)" fill="#e3d0e2"/><path d="M104.371,57.363H102.3c-2.684-4.686-8.56-6.956-13.774-7.115V48.41C94.762,48.539,102.031,51.109,104.371,57.363Z" transform="translate(-61.376 -33.562)" fill="#3d4a75"/><path d="M260.51,245.495c-7.419-.025-14.85.006-22.27,0V204.86h18.706c1.9.175,3.481.981,3.57,3.092l-.009,37.543Z" transform="translate(-165.17 -142.028)" fill="#fecdbf"/><path d="M151.377,204.85v40.635c-3.975,0-7.962,0-11.937,0V204.85Z" transform="translate(-96.672 -142.022)" fill="#fecdbf"/><path d="M200.777,205.08v40.4c-3.975,0-7.962,0-11.937,0V204.85Z" transform="translate(-130.921 -142.022)" fill="#fecdbf"/><path d="M77.322,246.829a1.679,1.679,0,0,1,1.438,2.834L69.8,258.606a1.623,1.623,0,0,1-2.285-2.288,105.365,105.365,0,0,1,8.95-8.956A2.105,2.105,0,0,1,77.322,246.829Z" transform="translate(-46.555 -171.107)" fill="#e2f0fe"/><path d="M94.561,264.014c1.629-.337,2.346,1.215,1.638,2.573-.347.666-4.975,5.107-5.613,5.2a1.623,1.623,0,0,1-1.675-2.383,60.731,60.731,0,0,1,4.788-4.855A2.136,2.136,0,0,1,94.561,264.014Z" transform="translate(-61.5 -183.008)" fill="#e2f0fe"/><path d="M263.465,246.907c1.527-.15,2.086,1.38,1.451,2.6l-9.078,9.054c-1.622,1.365-3.444-.669-2.285-2.285,2.932-2.331,5.9-6.769,8.818-8.858a2.287,2.287,0,0,1,1.1-.515Z" transform="translate(-175.532 -171.172)" fill="#e2f0fe"/><path d="M280.421,264.013c1.564-.325,2.371,1.086,1.779,2.481a69.43,69.43,0,0,1-5.073,5.024c-1.659.871-2.975-.586-2.263-2.26.129-.307,4.211-4.352,4.7-4.714a2.136,2.136,0,0,1,.862-.531Z" transform="translate(-190.424 -183.007)" fill="#e2f0fe"/><path d="M163.52,258.011a2.014,2.014,0,0,1,1.92.512,16.378,16.378,0,0,1,.205,4.6c-.294,1.579-2.892,1.445-3.2-.466C162.272,261.532,162.174,258.413,163.52,258.011Z" transform="translate(-112.554 -178.835)" fill="#f19988"/><path d="M195.017,258.027c2.493-.552,2.444,3.223,2.082,4.84s-2.871,1.816-3.159.273a25.871,25.871,0,0,1,.04-4.312,1.532,1.532,0,0,1,1.04-.8Z" transform="translate(-134.408 -178.851)" fill="#f19988"/></g></g></svg>