<svg xmlns="http://www.w3.org/2000/svg" width="96.652" height="97" viewBox="0 0 96.652 97"><g transform="translate(0 0)"><path d="M115.034,80.322a1.38,1.38,0,0,1-1.639.189l-4.452-1.144-.357-.452-.4-.138-.036-20.8a14.64,14.64,0,0,0-5.676-.408l-.335-.393c-.576-.109-.707-.313-.4-.6l-.4-.8c-.248-.182-.517-.525-.4-.8a10.486,10.486,0,0,1-1.414-6.237c-.372-.022-.073-1.4-.08-1.326a8.741,8.741,0,0,0-.117,3.337c.109.044.2.095.226.168.364,1.1.838,2.747,1.129,3.891.007.044-.058.1-.146.175.342.67.765,1.785,0,2.215l-.3.452c-.751.189-1.035,1-.845,2.419q.077,10.23.226,20.359a.74.74,0,0,1,.714.517c.146.036.211.109.2.2v5.436l-.16,1.173q-15.673-.033-31.3-.168c-.335-7.746-.306-15.579-.2-23.346a16.88,16.88,0,0,1,0-4.022c-.16-3.614-.168-7.25,0-10.864q-.175-3.038-.08-6.092a34.09,34.09,0,0,1,5.523.051l.517.415c2.587,9,16.919,8.962,19.535,0l-2.055-.2-.255-.423c1.21.015,2.412.189,3.519.211,3.192.051,7.7-.408,10.675.007a4.218,4.218,0,0,1,2.507,1.727c1.982,5.895,5.917,12.212,6.288,18.471a136.193,136.193,0,0,1-.007,16.81Z" transform="translate(-18.655 -11.699)" fill="#4d7cfd"/><path d="M21.8,42.218c.415.073.612.2.6.4l1.261.4c2.1,1.355,4.27,2.681,6.441,3.825l-.226-3.9.379-.539c-.182-.036-.175-.1,0-.2,2.594.015,5.654-.226,8.176,0,3.352.291,5.166,3.075,7.556,5.035l.27.452a54.385,54.385,0,0,0-.474,12.853l-.4.379c-2.142-.393-3.556-2.12-5.443-3.017-.175-.386-.131.153,0,.4-1.195,7.534-.86,15.018-.612,22.647a15.062,15.062,0,0,1,.211,3.111c-.2.007-.4-.007-.6,0-.036.182-.109.175-.2,0q-10.624.044-21.167-.2l-.27-.036c-.08-10.828-.058-22,0-32.826l.27-.138c0,.3-.029.437-.306.5L17.244,83.5c.131.255.1.444-.08.568.561.182.517.379,0,.6a33.216,33.216,0,0,1-5.647,0c-.16.641-2.2.612-2.419,0-.153-12.176-.138-24.5.306-36.622,2.018-6.259,6.966-5.778,12.394-5.837Z" transform="translate(-2.445 -11.427)" fill="#f7c41a"/><path d="M68.859,104.244l31.354-.2q.109,10.58-.1,21.131H84.787l-.4-.226q-.033-4.47-.51-8.933l-.685,8.948-.423.211H68.451c-.029-4.693.044-9.392,0-14.085a11.661,11.661,0,0,1,0-6.441c-.386-.117-.386-.291,0-.4.066-.532.248-.51.4,0Z" transform="translate(-18.451 -28.182)" fill="#222333"/><path d="M6.252,110.015c.568.2.546,1.384,0,1.61-.277.568-.393,1.53.5,1.312.27-.066.641-.634.109-.5-.393-.539-.459-2.062.2-2.412.51-.517,1.18-.517,2.018,0,.335-.576,1.909-.6,2.215,0a7.358,7.358,0,0,1,4.634,0c.51.16.466,1.588,0,1.814-.831,1.537,1.457,1.581.6,0a1.4,1.4,0,0,1,0-1.814c.729-.94,3.06-.4,3.549.816l3.053,15.571-.35.313q-11.389.011-22.785,0l3.126-15.7c.517-1.341,1.946-.976,3.126-1.006Z" transform="translate(0 -29.726)" fill="#f63731"/><path d="M65.752,43.344l.335-.044c0,1.989.955,4.493.867,6.555.16,3.614.168,6.86,0,10.474.16,1.333-.838,2.615-1,3.941q.415,11.782,0,23.543v.4c-.044.16-.109.393-.233.4-.809.058-5.917.138-6.325,0l-.291-.4c-.335-8.9-.248-18-.2-26.967.022-3.556-.561-10.653.6-13.684s3.388-3.9,6.252-4.226Z" transform="translate(-15.949 -11.751)" fill="#4d7cfd"/><path d="M23.3,27.643c-.685.007-1.261.226-1.9.2a6.346,6.346,0,0,1-4.343-1.924c-1.895-2.186-.678-3.359-.138-5.764a37.056,37.056,0,0,0,.918-4.518c.124-1.5-.24-2.805-.175-4.2.138-2.856,1.756-6.689,4.955-7.126,1.246-.168,2.616.24,3.6.175.532-.036,1.873-1.006,2.885-1.151,7.542-1.086,10.427,6.908,11.943,12.73-.364.423-1.895-.561-1.807.189a21.528,21.528,0,0,0,1,3.439c.182.51,1.2,2.463,1.2,2.609.044,1.326-3.177,3.119-4.43,3.119a4.426,4.426,0,0,1,.751-2.113,34.707,34.707,0,0,0,.583-7.425,6.633,6.633,0,0,1-4.758-4.736c-1.523,1.552-7.665,5.909-9.385,5.9a2.379,2.379,0,0,1-.5-.066c-.058.488-.095.576-.262.138l-.546.058-.058.466a1.936,1.936,0,0,0-.044,3.687l.1.474c.248.08.444.131.627-.124.248.146.117,5.523,0,5.793a.378.378,0,0,1-.226.168Z" transform="translate(-4.351 -0.882)" fill="#0e0f16"/><path d="M93.039,15.616h.277q.481,2.864,1.057,5.756c.233-.466.525-.707.882-.721.189-.087.262-.291.2-.6-.5-.35-.379-.663.2-.8.255.663.823.925.962,1.756a2.844,2.844,0,0,1-.714,2.47,5.44,5.44,0,0,1-1.02.437c-.087.109-.415,2.106-.641,2.681a8.387,8.387,0,0,1-3.228,3.92,1.944,1.944,0,0,1-1.654,1.231c-2.9.6-.78.656,1.006.466,0-.59.219-.889.648-.9.007,1.486-.554,3.155,1.006,4.022q-5.64.077-11.294,0c.146-.35.6-.43.787-.721a7.238,7.238,0,0,0,.182-3.964c-.044-.153-1.822-1.632-2.23-2.208-1.151-1.61-1.086-3.33-1.669-4.372-.095-.168-.67-.423-.918-.7-1.246-1.384-.772-2.477.007-3.935.59-.131.845.619.4,1.006-.087.335-.022.466.2.4.306-.073.6.1.882.525l.882-5.749.452-.211a7.87,7.87,0,0,0,.1-.874,43.022,43.022,0,0,0,13.174.6l.029.466Z" transform="translate(-20.654 -3.944)" fill="#fcbaac"/><path d="M95.955,10.464c-.539.736-2.463,1.312-3.432,1.508l-.393-.3a.89.89,0,0,0-.5-.16,30.385,30.385,0,0,1-12.606-.641c.095.262-.175.474-.2.6q-2.2-1.038-4.233-2.215v-.4a1.08,1.08,0,0,0-.2-.5,4.42,4.42,0,0,1-1.6-4.212c.24-1.829,1.6-.838,3.111-.918C79.2,3.061,81.258.321,84.6.03c4.78-.423,12.329,4.1,11.863,9.465a1.471,1.471,0,0,1-.488.976Z" transform="translate(-19.738 -0.002)" fill="#222333"/><path d="M26.436,19.552a51.4,51.4,0,0,0,8.671-5.13l1.61-1.712c.087,2.8,2.113,4.729,4.649,5.552-.189,3.454.743,6.842-1.625,9.735A7.427,7.427,0,0,1,34.91,30.62c0,1.2-.044,2.412-.007,3.614a49.78,49.78,0,0,1-8.467,0c-.24-.845.131-2.958-.2-4.022.058-.175.124-.175.2,0,.335,0,.474.255.415.758a15.72,15.72,0,0,0,4.525-.211c-2.623-.933-4.875-3.075-4.948-5.982-.393-.306-.43-.474-.117-.5a18.256,18.256,0,0,0-.153-4.605l.27-.131Z" transform="translate(-7.083 -3.451)" fill="#fcbaac"/><path d="M46.434,99.7h.2v24.352c-2.951,0-5.917-.007-8.875,0l-.393-.168,1.785-23.965.423-.219Z" transform="translate(-10.14 -27.055)" fill="#4d7cfd"/><path d="M32.271,99.665l.393.168q-.8,11.979-1.588,23.965l-.415.219H28.241L25.166,108.27c-.634-1.261-1.982-.94-3.17-.962a2.422,2.422,0,0,1-.6-1.486,1.945,1.945,0,0,1-.4-1.53,4.421,4.421,0,0,1-.248-1.494,2.388,2.388,0,0,1-.364-2.135c-.277.087-.335-.168-.2-.4-.044-.168.029-.415,0-.6q6.044-.175,12.1,0Z" transform="translate(-5.456 -27.02)" fill="#4d7cfd"/><path d="M80.409,43.08c.393.117.5.2.095.3l.109.5.525.226c2.055,4.51,9.247,4.518,11.068-.175l.5-.255c-.131-.488-.066-.692.2-.6h1.21l2.82.2c-2.215,10.063-18.413,10.055-20.563,0a20.556,20.556,0,0,1,2.623-.2c.466-.007.94.007,1.414,0Z" transform="translate(-20.725 -11.684)" fill="#234bb9"/><path d="M120.328,92.024c2,.211,4.343,1.341,6.449,1.406a4.631,4.631,0,0,1-1.406,3.126,42.947,42.947,0,0,1-5.108,3.359c-3.891,2.026-6.529-3.148-3.17-5.676-1.559-.109-3.3.146-4.838,0a.266.266,0,0,1-.2-.2l.488-.372,2.361-.08c-1.421-2.222,4.773-2.346,5.2-1.982a.683.683,0,0,1,.219.423Z" transform="translate(-30.404 -24.815)" fill="#fcbaac"/><path d="M38.823,99.7l-1.814,24.352H34.59L36.2,99.7h2.623Z" transform="translate(-9.386 -27.055)" fill="#4570e4"/><path d="M11.549,100.53a52.437,52.437,0,0,0,5.348.095c.328.015.372.357.095.51.459.357-.219,2.011-.809,2.011.437.4.423.751-.2.8.641,1.341-.466,3.658-2.215,3.621-.794,0-1.392.029-2.215,0-1.071-.138-1.676-.6-1.814-1.406-.284-.153-.415-.488-.4-1.006.233-1.195-.182-3.257-.2-4.627Z" transform="translate(-2.477 -27.28)" fill="#fcbaac"/><path d="M66.067,104.95c.015,2.142-.022,4.3,0,6.441a7.116,7.116,0,0,1-6.857-6.441Z" transform="translate(-16.066 -28.48)" fill="#fcbaac"/><path d="M75.188,12.15c.845.758,2.856,1.326,3.847,1.9.393.226.481.138.386.714-.2.816-.772,6.026-1.02,6.23-.546.444-1.006-.437-1.2-.794-.4.066-.474-.109-.2-.4-.117-.255-.291-.714-.4-1.006a26.018,26.018,0,0,1-1.559-5.6,1.258,1.258,0,0,1,.153-1.042Z" transform="translate(-20.349 -3.299)" fill="#0e0f16"/><path d="M90.288,127.723H88.27l1.108-14.493.9,11.775v2.718Z" transform="translate(-23.952 -30.726)" fill="#0e0f16"/><path d="M101.963,19.191c-.087.3-.138.6-.2.8.124.452.058.656-.2.6-.182.488-.736,1.683-1.319.816-.379-.561-.656-4.853-.9-5.844l3.833-1.21c-.43,1.588-.736,3.25-1.21,4.831Z" transform="translate(-26.955 -3.898)" fill="#0f1016"/><path d="M100.383,124.876V103.95H69.131c-.175-.058-.175-.124,0-.2h31.135l.313-1.006c0,7,.08,14.027,0,21.029,0,.342.131.9-.2,1.1Z" transform="translate(-18.723 -27.88)" fill="#5474ce"/><path d="M94.467,37.262c-.073.393-.036.867-.08,1.428a16.329,16.329,0,0,1-5.567-.721,11.149,11.149,0,0,0,5.647-1.508c-.029.255.044.568,0,.8Z" transform="translate(-24.101 -9.895)" fill="#eba090"/><path d="M51.157,60.127c-.022.124.022.277,0,.4-.342-.2-.211-.751-.182-1.078.342-3.243-.437-3.84-.634-6.456-.044-.612-.015-1.4.007-2.026.007-.248-.153-.751.2-.7-.335,2.252,1.1,4.525,1.159,6.594A17.557,17.557,0,0,1,51.157,60.127Z" transform="translate(-13.654 -13.641)" fill="#ef9d13"/><path d="M9.5,107.886c.437.444.459,1.21-.2,1.406a16.656,16.656,0,0,1-.2,2.412c.386.313-.095.685-.525.532s-.321-1-.08-1.333a13.193,13.193,0,0,1,0-1.61,14.368,14.368,0,0,1,.6-2.412,1.066,1.066,0,0,1,.4,1.006Z" transform="translate(-2.247 -29.003)" fill="#17141b"/><path d="M26.259,22.1v5.232A16.2,16.2,0,0,1,26.63,32a1.593,1.593,0,0,1-.372.772h-.408c.452-1.749.073-3.7.211-5.509-.029-.1-.452-.255-.612-.328a9.054,9.054,0,0,0,0-4.627A6.26,6.26,0,0,1,26.259,22.1Z" transform="translate(-6.906 -5.998)" fill="#c1948b"/><path d="M111.734,62.251c.2-.743,1.159-.452,1.61,0,1.159-.036,5.3-.2,6.041.313a.745.745,0,0,1,.372.43l.036,20.992c-1.457-.153-6.82-.532-4.634,2.011-1.18-.073-2.463.1-3.629,0-.765-.066-1.093.029-1.217-.9.525-6.908-.663-14.763,0-21.554C110.415,62.52,110.75,62.367,111.734,62.251Z" transform="translate(-29.877 -16.77)" fill="#f63731"/><path d="M68.81,72.034c.051,7.7.379,15.579.2,23.346v.2h-.4c-.058-7.8-.058-15.746,0-23.543.058-.175.124-.175.2,0Z" transform="translate(-18.606 -19.514)" fill="#234bb9"/><path d="M112.231,57.057c.095.3.087.35-.2.2l-.2-.2c-.182-1.3-1.078-2.419-1.21-4.226a1.882,1.882,0,0,1,.2-2.011,18.509,18.509,0,0,0,1.414,6.237Z" transform="translate(-29.966 -13.792)" fill="#2850c0"/><path d="M112.538,59.584c.306.109.474.5.6.8a.882.882,0,0,1,.4.6c.146.189.262.408.4.6-.517.015-1.122-.058-1.61,0-.066-.7.095-1.537,0-2.215a1.082,1.082,0,0,1,.2.2Z" transform="translate(-30.477 -16.114)" fill="#fcfcfe"/><path d="M110.791,50.294a3.539,3.539,0,0,0-.2,2.011,3.828,3.828,0,0,1-.2-2.113c.022-.27.095-1.217.4-1.312.022.466-.029.94,0,1.406Z" transform="translate(-29.94 -13.265)" fill="#3864dc"/><path d="M113.225,60.182v.2a7.33,7.33,0,0,1-.6-.8l.2-.2C112.9,59.555,113.115,59.97,113.225,60.182Z" transform="translate(-30.559 -16.114)" fill="#355cc6"/><path d="M113.851,61.289c-.2-.255-.284-.437-.4-.6v-.2c.109.219.466.408.4.8Z" transform="translate(-30.784 -16.413)" fill="#4d71d2"/><path d="M20.11,87.337c-.015-.1-.328-.415-.219-.678l.015-32.4.6-.117v33l21.167.2c-2.222.117-4.612-.007-6.857,0H32.2c-4.029.007-8.066,0-12.1,0Z" transform="translate(-5.391 -14.692)" fill="#ef9f14"/><path d="M35.259,42.5a40.177,40.177,0,0,1,.2,5.232c-2.594-1.69-5.6-3.191-8.066-5.028.007-.117.015-.2.029-.2,2.587-.1,5.3-.117,7.833,0Z" transform="translate(-7.432 -11.512)" fill="#fcbaac"/><path d="M35.037,42.256v.2l-7.862.2c-.16-.117-.532-.16-.6-.4,2.82-.029,5.654-.022,8.467,0Z" transform="translate(-7.21 -11.464)" fill="#fbbba3"/><path d="M18.1,100.53c.029.131.168.27.2.4.08.539-.029.59-.4.2.109-.612-.306-.386-.7-.4-1.552-.058-3.272.211-4.751-.2Z" transform="translate(-3.378 -27.28)" fill="#f1b7b0"/><path d="M20.134,108.835H15.5c1.909-.911,1.749-1.975,2.215-3.621C19.107,104.966,20.848,107.655,20.134,108.835Z" transform="translate(-4.206 -28.547)" fill="#4d7cfc"/><path d="M20.558,105.488a4.654,4.654,0,0,1,1.006,3.017,15.073,15.073,0,0,1,0,1.814c.969,1.53-1.559,1.552-.6,0-.044-.583.073-1.246,0-1.814a4.74,4.74,0,0,0-2.419-3.621c.066-.24.117-.51.2-.8C19.261,103.622,20.8,104.8,20.558,105.488Z" transform="translate(-5.031 -28.216)" fill="#0f1119"/><path d="M21.645,112.68c.095,1.326.51,1.326.6,0,.9.015.59,1.326-.1,1.414C21.157,114.225,20.567,112.877,21.645,112.68Z" transform="translate(-5.717 -30.577)" fill="#e9d8d8"/><path d="M11.7,109.666c-.67-.022-1.348.015-2.018,0,.036-.481.2-1.064.2-1.406Z" transform="translate(-2.627 -29.378)" fill="#fbf9fa"/><path d="M9.006,113.212a.861.861,0,0,0,.2-.6c.758.335.306,1.428-.481,1.406-.947-.029-1.071-1.049-.328-1.6C8.437,113.044,8.423,114.122,9.006,113.212Z" transform="translate(-2.149 -30.504)" fill="#e9dadb"/><path d="M24.775,22.363c.707-.022.554-.124.6.5a27.631,27.631,0,0,1,0,3.643c-.051.619.1.517-.6.5-.488-.226-.78-.153-1.217-.7-1.268-1.6-.474-3.221,1.217-3.927Z" transform="translate(-6.223 -6.064)" fill="#fbb9ac"/><path d="M92.108,29.83c-.43,3.935-5.793,4.073-6.048,0Z" transform="translate(-23.352 -8.096)" fill="#fefefe"/><path d="M85.814,22.076c.517.532.226,2.157-.619,1.938C84.058,23.722,84.772,20.99,85.814,22.076Z" transform="translate(-22.96 -5.923)" fill="#3b3938"/><path d="M94.944,22.076c.517.532.226,2.157-.619,1.938C93.188,23.722,93.9,20.99,94.944,22.076Z" transform="translate(-25.437 -5.923)" fill="#3a3737"/><path d="M102.585,22.1c.248.809.823,1.057.517,2.018-.08.248-.5.831-.714.6-.087-.095.955-1.537,0-2.011.066-.175.146-.423.2-.6Z" transform="translate(-27.781 -5.998)" fill="#e9a091"/><path d="M77.716,23.048c-.758.4-.408,1.319,0,1.807-1.129-.08-1.049-1.749-.2-2.215.066.138.131.27.2.4Z" transform="translate(-20.859 -6.145)" fill="#eba192"/><path d="M26.543,29.28A7.828,7.828,0,0,0,33,35.219c.015.459-5.946,1.108-6.368.517-.168-.24-.073-.721-.087-1.02-.1-1.749,0-3.665,0-5.436Z" transform="translate(-7.19 -7.947)" fill="#eba090"/><path d="M41.337,29.28a2.828,2.828,0,1,1-5.647,0Z" transform="translate(-9.684 -7.947)" fill="#fefefd"/><path d="M35.728,22.369c1.53-.5,1.122,2.579-.036,1.61C35.3,23.652,35.225,22.537,35.728,22.369Z" transform="translate(-9.598 -6.056)" fill="#131319"/><path d="M42.623,22.379c1.261-.437,1.129,1.814.175,1.807C42.055,24.186,42.018,22.59,42.623,22.379Z" transform="translate(-11.451 -6.059)" fill="#131319"/><path d="M20.634,104.7A10.564,10.564,0,0,0,18.82,103.3a9.991,9.991,0,0,1,.809-2.011c.051-.066.306-.124.4-.2C20.357,102.246,21.341,103.572,20.634,104.7Z" transform="translate(-5.107 -27.429)" fill="#f9b8ac"/><path d="M82.089,43.819c-.182-.291-.313-.721-.2-.8a2.825,2.825,0,0,1,.714-.073,106.248,106.248,0,0,1,10.981.073c.386.015.714,0,.6.6-1.537,5.45-10.121,5.647-12.1.2Z" transform="translate(-22.208 -11.622)" fill="#fcbaac"/></g></svg>