<svg xmlns="http://www.w3.org/2000/svg" width="102.508" height="96.998" viewBox="0 0 102.508 96.998"><g transform="translate(0 0)"><path d="M73.863,80.453c.061.2,0,.535.092.849,2.164,6.988,4.809,13.786,7.478,20.583-.734,2.99-4.733,4.1-7.363,4.748a3.17,3.17,0,0,1-.451.4c-1.583,1.1-10.024,1.506-12.417,1.491a1.423,1.423,0,0,1-.535-.138,3.937,3.937,0,0,1-.535-.275c-.772,0-1.552.023-2.324,0a2.7,2.7,0,0,1-.451.268,1.053,1.053,0,0,1-.451.122c-2.256-.038-11.155-.726-12.471-1.9a2.144,2.144,0,0,1-.344-.4c-1.927-.6-5.9-2.064-5.712-4.534,2.653-7.1,6.53-14.4,8.036-21.86a5.693,5.693,0,0,1,3.173.245c7.814,1.017,15.9.6,23.634.084l.642.3Z" transform="translate(-8.678 -18.091)" fill="#f63731"/><path d="M53.756,37.058l.283.8c-.5,2.554-.933,5.092-1.323,7.615a50.128,50.128,0,0,1,15.728.986,25.414,25.414,0,0,1,1.369-9.114l.619-.291c.7,0,1.414.023,2.11,0l.382.275-1.162,6.744c-.39,2.775-.344,4.129,2.286,5.406a5.081,5.081,0,0,1,1.866,2.569,62.3,62.3,0,0,0-.841,16.469c-.405.092-.765-.115-.4-.268a130.358,130.358,0,0,1-24.238-.184,4.211,4.211,0,0,1-.887-.229,7.3,7.3,0,0,1-.872-.375,28.742,28.742,0,0,0-.214-6.965l.78-.245a33.128,33.128,0,0,0,9.565.245c.015-.466-.52-.352-.841-.214a13.391,13.391,0,0,1-5.505.313c-1.254-.153-3.54-.459-4.136-1.567-.008-.023.26.176-.076.206-.7-3.188-3.257-6.988-1.269-10.345a.785.785,0,0,1-.191-.229c-.214-.466,2.5-2.141,2.99-2.393-.076-3-.015-6.132,1.223-8.915l.619-.291c.7.023,1.414,0,2.11,0Z" transform="translate(-10.537 -8.44)" fill="#f63731"/><path d="M67.739,26.652l-.872-.145c-.084-2.332-.076-4.672.023-7.034l.222-.436a2.107,2.107,0,0,0,.015-4.182l-.237-.443c-.076.329-.214.26-.421-.214a2.406,2.406,0,0,1-.512.092c-1.132.046-5.046-2.271-5.612-3.464A1.334,1.334,0,0,1,59.076,9.77c-.963.191-3.035-1.529-2.745-2.531a2.276,2.276,0,0,0-1.055.841c.528.5-.39,2.263-1.055,2.324a1.579,1.579,0,0,1-1.055,1.269c.26.642-.68,1.346-1.269,1.055-.092.443.023.788-.375,1.124a14.343,14.343,0,0,0,.245,3.961l-.069.879c-.145,3.571,3.02,6.323,6.377,6.9.268.336.122.673-.26.856a3.809,3.809,0,0,1-1.9,0c-2.324-.443-6.377-2.019-7.332-4.381s1.254-6.086,1.843-8.388c-4.006.963-1.43-4.832-.459-6.583,2.4-4.328,7.111-8.479,12.394-6.621.543.191,1.346.81,1.7.856.8.107,2.424-.344,3.571-.214,3.624.421,5.383,4.71,5.406,7.921a32.189,32.189,0,0,0-.206,3.563c.352,3.586,3.678,8.885.818,12.058-1.392,1.544-3.945,1.881-5.91,2.011Z" transform="translate(-11.01 -0.025)" fill="#0e0f16"/><path d="M60.839,11.785c.237.7,1.239.841,1.942,1.025a25.076,25.076,0,0,0,5.169,3.3c-.138,6.254.069,14.955.069,14.955,1.338-.008,2.676,0,4.014,0-1.644,3.013-1.3,6.614-1.59,9.924-5.283-1.529-10.9-1.231-16.362-1.269a52.4,52.4,0,0,1,1.269-8.655c1.193-.008,2.393,0,3.594,0,0-.558.015-2.324,0-2.531-2.837-.054-5.918-2.967-6.446-5.7a10.745,10.745,0,0,1-.1-1.7,52.064,52.064,0,0,1-.237-5.994,43.9,43.9,0,0,0,3.456-5.413c.268-.5,1.827-.78,2.271-.849a13.291,13.291,0,0,0,2.959,2.9Z" transform="translate(-11.927 -2.109)" fill="#fcbaac"/><path d="M7.942,27.312,9,27.526a.476.476,0,1,1,.841.421,2.535,2.535,0,0,0,.841-.214c.069-.092.138-.092.214,0l1.055.214c.359-.443.5-.344.421.214a1.166,1.166,0,0,1,1.055,0c.061-.4.229-.375.421,0l1.055.214c.061-.405.229-.382.421,0l1.055.214V28.8a.784.784,0,0,0,.841,0c.245-.833,3.647-.183,2.324.635l-.214,1.055a3.837,3.837,0,0,1-.635,3.8,2.253,2.253,0,0,1-.214,1.055,2.8,2.8,0,0,1-.421,2.531,2.253,2.253,0,0,1-.214,1.055,4.473,4.473,0,0,1-.635,3.8A2.128,2.128,0,0,1,17,43.789a4.473,4.473,0,0,1-.635,3.8l-.214,1.055a2.737,2.737,0,0,1-.421,2.959c-.038,0-.13.191-.268.153L.556,49.271a21.311,21.311,0,0,1,.635-2.959l-.038-.956q2.363-9.141,5.039-18.121l.489.076c.612-.336,1.032-.336,1.269,0Z" transform="translate(-0.136 -6.191)" fill="#f7c41a"/><path d="M120.485,27.308c.413-.313.558-.092.68.336q2.386,8.338,4.718,16.7a4.429,4.429,0,0,1,.115.963,8.8,8.8,0,0,1-.023,1,20.855,20.855,0,0,1,.635,2.959c-4.6.482-9.3,1.8-13.862,2.286a4.134,4.134,0,0,1-1.338.038c-.543-.482-1-2.439-.421-2.959l-.214-1.055c-.191-.038-.184-.107,0-.214l-.214-1.055a2.026,2.026,0,0,1-.421-2.531l-.214-1.055a4.473,4.473,0,0,1-.635-3.8l-.214-1.055a4.895,4.895,0,0,1-.635-3.8l-.214-1.055a7,7,0,0,1-.925-4.129c.1-.344,2.508-.788,2.615-.092.4.161.68.161.841,0v-.214l1.055-.214c.061-.405.229-.382.421,0l1.055-.214c.061-.405.229-.375.421,0a1.166,1.166,0,0,1,1.055,0c-.153-.543.015-.6.421-.214l1.055-.214c.061-.115.138-.115.214,0a.51.51,0,0,1,.375.054c.864.818.306.948.275.39,0-.076.084-.153.2-.237-.359-.665.688-1.055,1.055-.421a2.215,2.215,0,0,1,1.055-.214q.115-.5,1.055,0Z" transform="translate(-24.53 -6.187)" fill="#f7c41a"/><path d="M28.01,27.792l1.476.214c.191-.581.443-.581.635,0l1.055.214c.161-.589.7-.6.841,0l1.476.214c.023-.566.237-.535.421,0a1.12,1.12,0,0,1,0,1.055c.214.206.13.749,0,1.055a.6.6,0,0,1,0,1.055c-.076,1.147-.153,2.278-.214,3.38a1.7,1.7,0,0,1,0,1.269,1.034,1.034,0,0,1,0,1.476c-.084.94-.153,1.858-.214,2.745a1.7,1.7,0,0,1,0,1.269c.413.268.413.581,0,.841-.076.359-.145.719-.214,1.055a8.738,8.738,0,0,1,0,2.959,1.19,1.19,0,0,1,0,1.055.851.851,0,0,1,0,1.476c.015.665-.122,1.017-.421,1.055-1.7-.145-3.372-.5-5.069-.635L27.36,49.4V29.038c-.833-.115-1.33-.39-1.476-.818a.335.335,0,0,1,.214-.635c.321-.482,1.759-.39,1.9.214Z" transform="translate(-5.898 -6.245)" fill="#1ba975"/><path d="M104.311,27.536c.421-.046.428.344.214.635.268.535-.191.749-1.376.627q-.126,9.932-.283,20.032l-.245.665c-1.56-.084-3.815.833-5.276.635-.069-.451-.138-.94-.214-1.476a1.1,1.1,0,0,1,0-1.69,5.3,5.3,0,0,1,0-2.324c-.054-.6-.13-1.239-.214-1.9a.805.805,0,0,1,0-1.269,3.576,3.576,0,0,1,0-1.9c-.061-.757-.138-1.529-.214-2.324a1.618,1.618,0,0,1,0-1.9,8.189,8.189,0,0,1,0-2.959c-.069-.329-.145-.68-.214-1.055-.482.008-.589-2.936-.489-3.074a.608.608,0,0,1,1.124.115,3.719,3.719,0,0,0,1.269-.214c.191-.581.443-.581.635,0l1.269-.214c.214-.581.635-.573.841,0a3.719,3.719,0,0,1,1.269-.214,1.162,1.162,0,0,1,1.9-.214Z" transform="translate(-22.027 -6.204)" fill="#4d7cfd"/><path d="M88.477,46.235c-.726.5-3.731.887-4.175,1.315a29.768,29.768,0,0,0-.68,3.334l-1.9-2.011c-.459-.566-1.957-1.262-2.317-1.69-1.361-1.629.512-9.083.841-11.293,2.179-.076,4.373-.336,6.545-.528l2.11-3.272c.7.168.375,2.011-.214,2.217.161,0,.421.038.421.145a66.217,66.217,0,0,1,0,7.791c.13.635-.008,1.017-.421,1.147.7.283.405,2.546-.214,2.852Z" transform="translate(-18.107 -7.356)" fill="#fcbaac"/><path d="M102.6,25.148a1.889,1.889,0,0,1,.635,1.9,13.311,13.311,0,0,0-1.9.214,3.544,3.544,0,0,0-1.269.214c-.275.023-.566,0-.841,0l-1.269.214c-.206,0-.428-.015-.635,0l-1.269.214c-.245.046-.573-.038-.841,0a8.086,8.086,0,0,1,.214,2.951,1.19,1.19,0,0,1,0,1.055c.061.963.13,1.95.214,2.959v1.9a5.079,5.079,0,0,1,0,2.324c.054.6.13,1.239.214,1.9v1.269a3.576,3.576,0,0,1,0,1.9c.069.757.138,1.529.214,2.324v1.69c.168.4.275,1.407-.214,1.269-.459-.375-1.109-1.751-1.629-1.866-.413-.092-2.714.489-2.806.39.008-1.124-.015-2.256,0-3.38.015-.94.214-2.118.214-2.852V32.671c0-.482.184-1.506.214-2.217.046-1.33-.038-2.676,0-4.006.749-.1,1.575-.115,2.324-.214a17.6,17.6,0,0,1,8.449-1.055Z" transform="translate(-20.963 -5.732)" fill="#234bb9"/><path d="M34.859,25.956a15.823,15.823,0,0,0,2.745.421c.031,1.262-.038,2.538,0,3.8a11.575,11.575,0,0,1,.619,2.294l-.413.344c.161,0,.413.038.421.145a59.219,59.219,0,0,1,0,8.479l-.421.245c.658.26.864,2.508.214,2.852.015,1.124-.008,2.256,0,3.38-.161.161-2.363-.489-2.806-.39-.375.084-1.262,1.476-1.629,1.866-.405.336-.474.054-.214-.841-.008-.489,0-.986,0-1.476.069-.359.145-.719.214-1.055a8.738,8.738,0,0,1,0-2.959,1.19,1.19,0,0,1,0-1.055v-.841c.076-.443.153-.864.214-1.269a7.056,7.056,0,0,1,0-2.745V35.674c.076-.443.153-.864.214-1.269a10.662,10.662,0,0,1,0-3.38V29.97c.076-.367.145-.719.214-1.055-.061-.344-.13-.7-.214-1.055a3.822,3.822,0,0,0-.421,0l-1.476-.214c-.275-.023-.566.023-.841,0l-1.055-.214c-.206-.015-.421,0-.635,0l-1.476-.214a6.363,6.363,0,0,1-1.9-.214c-.382-.4.191-1.674.635-1.9l.589-.229q3.59.3,7.1.665l.336.405Z" transform="translate(-5.987 -5.691)" fill="#0f865a"/><path d="M59.574,116.284c-.451,1.973-.658,4.763-1.307,6.606a.617.617,0,0,1-.275.359H46.064l-.214-8.869A54.572,54.572,0,0,0,59.574,116.284Z" transform="translate(-10.512 -26.258)" fill="#fcbaac"/><path d="M108.645,28.09c.076-.566.214-.5.421,0a.443.443,0,0,1,.214.841l-2.324.214c.283,1.323.413,2.676.635,4.014l.214,1.055c.206,1.262.421,2.538.635,3.8l.214,1.055c.214,1.262.413,2.538.635,3.8l.214,1.055c.138.849.344,1.667.421,2.531l.214,1.055v.214l.214,1.055a13.74,13.74,0,0,1,.421,2.959c-.8-.153-1.69-.826-2.431-.856-.658-.031-3.28,1.078-3.479.856a8.384,8.384,0,0,0-.214-2.11c-.451-6.683.336-13.847,0-20.591.1-.8.971-.451,1.567-.543.176-.023.291-.191.336-.2.076-.581.191-.52.421,0,0-.5.826-.635,1.055-.214.237-.573.359-.528.635,0Z" transform="translate(-24.002 -6.332)" fill="#ee9a13"/><path d="M80.769,114.94l-.214,8.449H68.306l-1.476-6.965a60.517,60.517,0,0,0,13.939-1.476Z" transform="translate(-15.318 -26.39)" fill="#fcbaac"/><path d="M22.55,28.093c.275-.528.4-.573.635,0,.245-.329,1.063-.237,1.055.214.069-.566.184-.5.421,0,.336.061,1.858.344,1.911.566V49.639l-.222,2.11c-.2.214-2.821-.887-3.479-.856-.7.031-1.567.7-2.431.856.13-.979.252-1.98.421-2.959l.214-1.055c.214-1.262.413-2.538.635-3.8a2.352,2.352,0,0,0,.214-1.055c.222-1.262.413-2.538.635-3.8a2.352,2.352,0,0,0,.214-1.055c.145-.841.283-1.69.421-2.531a2.352,2.352,0,0,0,.214-1.055c.214-1.277.489-2.508.635-3.8l.214-1.055c.038-.153.061-.39-.122-.443l-2.194-.191c-.421-.268-.283-.765.214-.841.161-.474.268-.482.421,0Z" transform="translate(-4.701 -6.334)" fill="#ee9a13"/><path d="M50.437,35.824c-1.506,2.768-1.422,6.262-1.476,9.351-.046.2-2.684,1.644-3.173,2.47l-4.221-1.476c-.015-.94-.214-2.118-.214-2.852V34.448c0-.635-.184-1.8-.214-2.638.459.627,1.659,3.372,2.256,3.548,2.347.138,4.687.39,7.034.459Z" transform="translate(-9.446 -7.3)" fill="#fcbaac"/><path d="M49.311,76.83a137.02,137.02,0,0,0,18.06.856c.451-.008.856-.206,1.262-.214C70.9,77.4,73.2,77.312,75.46,77.3a2.033,2.033,0,0,0,.245.589c.214.52.466,1.338.635,1.9a33.083,33.083,0,0,1-6.025.413,106.036,106.036,0,0,1-17.28-.229,40.092,40.092,0,0,1-4.144-.818c.161-.78.336-1.529.421-2.324Z" transform="translate(-11.152 -17.67)" fill="#222333"/><path d="M35.088,22.9c-.428-.054-.918.054-1.369,0-2.217-.275-4.427-.65-6.66-.841a19.475,19.475,0,0,1,1.055-5.276,9.67,9.67,0,0,0,0-2.531c-.329-.076-.489-.665-.214-.841.5-.933.206-1.636,1.59-1.5s1.07,2.852,1.606,4.106c.963,2.263,3.12,4.5,3.984,6.889Z" transform="translate(-6.218 -2.82)" fill="#fcbaac"/><path d="M102.4,13.39c.482.405.031,1.751-.214,2.324l.214,1.055a.529.529,0,0,1,.229.283c.321,1.453.7,3.2.971,4.649a.494.494,0,0,1-.138.352c-2.821.291-5.635.688-8.449,1.055a53.957,53.957,0,0,0,4.809-8.181c.191-.856-.115-2.791,1.009-3,1.315-.252,1.613.313,1.575,1.476Z" transform="translate(-21.808 -2.811)" fill="#fcbaac"/><path d="M6.341,25.587a1.811,1.811,0,0,0,1.269,0c.237-.558.642-.367.635.214.184.061.184.13,0,.214.076.069.008.145-.214.214a2.183,2.183,0,0,1-1.476.635.9.9,0,0,0-.275.451C4.758,33.554,2.686,39.663,1.065,45.864L.01,45.757,4.452,25.541c.1-.26.413-.252.627-.367.749-.191,1.17-.054,1.269.421Z" transform="translate(-0.01 -5.751)" fill="#1ba975"/><path d="M125.6,25.156c.245.145.382.2.421.528l4.442,20.063-1.055.107c-1.621-6.2-3.685-12.318-5.215-18.549a.9.9,0,0,0-.275-.451,5.41,5.41,0,0,1-1.9-.635c-.428-.168-.153-.329.214-.421.245-.535.4-.535.635,0a3.358,3.358,0,0,1,1.269-.214c.176-.474.665-.619,1.476-.421Z" transform="translate(-27.954 -5.748)" fill="#4d7cfd"/><path d="M21.959,12.988a.8.8,0,0,1,.833-.038c1.139.81-.107,6.209-.4,7.233a.513.513,0,0,1-.443.405c-.6.145-2.447-.78-2.324-1.476-.4.428-.612.39-.635-.214-.619.3-.879-.291-.635-.841-.321.1-.466-.107-.421-.635.1-.573-.061-1.292.054-1.957a3.253,3.253,0,0,1,3.961-2.477Z" transform="translate(-4.228 -3.044)" fill="#fcbaac"/><path d="M113.529,17.422c.092.291-.015.719-.421.635.237.566.015,1.07-.635.841.2.581-.252.642-.635.214.122.7-1.72,1.621-2.324,1.476a.513.513,0,0,1-.443-.405c-.329-1.185-1.491-6.124-.443-7.118a.649.649,0,0,1,.887-.076,3.253,3.253,0,0,1,3.961,2.477c.115.665-.054,1.392.054,1.957Z" transform="translate(-24.753 -3.043)" fill="#fcbaac"/><path d="M107.563,12.417c.5.291-.038,1.292-.421,1.476a.68.68,0,0,1-.382.344,19.468,19.468,0,0,0,.963,6.331l-.161.3c.352.023.52.872.214,1.055a2,2,0,0,1,.635,1.9c.344-.13.5.451.214.635a4.393,4.393,0,0,0-.635,0c-.566.054-.658-.283-.214-.635a1.339,1.339,0,0,1-.635-1.9c-.566-.076-.673-.268-.214-.635l-.589-.551a22.936,22.936,0,0,1-.895-5.933l.428-.7c-.122-.352-.405-.283-.841.214a5.548,5.548,0,0,0,0,2.531,3.979,3.979,0,0,1,.757,2.347,4.28,4.28,0,0,1,.3,2.722c.619.107,1.376,1.659.841,2.11.474.252.4.375,0,.635-.138.023-.291-.023-.421,0a2.7,2.7,0,0,1-.214-.635c-.222-.635-.443-1.246-.635-1.9a20.712,20.712,0,0,1-1.055-5.276L104.39,15.8c0-.872.191-1.575.214-2.324.52-.65,1.093-.512,1.7-.734.306-.115.528-.428.8-.5C107.41,12.142,107.5,12.4,107.563,12.417Z" transform="translate(-23.988 -2.894)" fill="#161219"/><path d="M26.946,13.485a5.576,5.576,0,0,1,.214.841,9.67,9.67,0,0,1,0,2.531A38.578,38.578,0,0,1,26.1,22.133c-.168.6-.451,1.147-.635,1.9-.046.191-.214.405-.214.635-.13-.023-.291.023-.421,0-.573-.168-.589-.428,0-.635-.589-.4.191-2.034.841-2.11a8.106,8.106,0,0,1,1.055-5.069,8.261,8.261,0,0,0,0-2.531c-.466-.5-.749-.573-.841-.214a4.731,4.731,0,0,1,.191,3.525,6.033,6.033,0,0,1-1.246,3.655c.459.367.352.558-.214.635a1.585,1.585,0,0,1-.635,2.11c.329.428.306.436-.214.421a4.392,4.392,0,0,0-.635,0c-.329-.107-.13-.7.214-.635a1.905,1.905,0,0,1,.635-1.9c-.329-.2-.168-1.025.214-1.055l-.161-.291A19.62,19.62,0,0,0,25,14.212l-.375-.321c-.359-.184-.849-1.147-.421-1.476.046,0,.076-.206.413-.13a9.033,9.033,0,0,1,2.332,1.185Z" transform="translate(-5.284 -2.907)" fill="#161219"/><path d="M124.669,24.726a2.762,2.762,0,0,1-1.476.421,3.239,3.239,0,0,0-1.269.214c-.206.023-.428-.023-.635,0-.191.237-.329.306-.421,0l-1.055.214c-.206.306-.436.313-.635,0-.673-.054-1.583-1.529-1.269-2.11,1.025.184,2.072-.3,3.035-.2a30.933,30.933,0,0,1,3.716,1.468Z" transform="translate(-27.024 -5.363)" fill="#244cb9"/><path d="M13.173,23.461c.344.627-.543,2.133-1.269,2.11-.191.329-.872.191-.841-.214a2.949,2.949,0,0,1-1.269,0,6.03,6.03,0,0,1-.635-.214,1.731,1.731,0,0,1-1.269,0,2.779,2.779,0,0,1-1.269-.421,22.381,22.381,0,0,1,3.5-1.468c.933-.122,2.041.413,3.043.206Z" transform="translate(-1.566 -5.359)" fill="#10875a"/><path d="M58.6,66.986c.367-.168.986-.252.841.214a20.529,20.529,0,0,1-10.345,0c-.054-.344-.145-.956-.214-1.269-.038-.765.122-.283.443-.122,2.974,1.522,6.048,1.1,9.275,1.177Z" transform="translate(-11.216 -15.075)" fill="#c61f17"/><path d="M23.758,12.473a3.049,3.049,0,0,1,.421,1.476,1.348,1.348,0,0,1,.3.291c.512.772-.436,5.6-1.139,6.461a.485.485,0,0,1-.214.841,2.227,2.227,0,0,1-.635,2.11c.321.184.107.7-.214.841-.092.3-.138.635-.214.841a7.5,7.5,0,0,1-.528,1.055c-.535.161-.252-.612-.313-1.055-.268-.642-.13-.994.421-1.055-.313-.13-.245-.344.214-.635a1.335,1.335,0,0,1,.635-1.9c-.535-.275-.436-1.262.214-1.269.237-.986.581-1.927.742-2.951.184-1.17.94-4.335-.742-4.649.245-.405.65-.367,1.055-.421Z" transform="translate(-4.972 -2.95)" fill="#131419"/><path d="M109.327,12.9c-1.682.313-.933,3.479-.742,4.649.161,1.025.5,1.965.742,2.951.65.008.749.994.214,1.269a1.332,1.332,0,0,1,.635,1.9c.451.069.535.313.214.635.711,0,.6.6.421,1.055-.046.329.038.719,0,1.055a2.089,2.089,0,0,1-.841-1.055c-.069-.176-.115-.551-.214-.841a.52.52,0,0,1-.214-.841,1.916,1.916,0,0,1-.635-1.9c-.359,0-.52-.856-.214-1.055-.711-.849-1.659-5.734-1.147-6.476a1.213,1.213,0,0,1,.306-.283,7.712,7.712,0,0,1,.421-1.476c.39.076.81,0,1.055.421Z" transform="translate(-24.565 -2.959)" fill="#13131a"/><path d="M117.148,22.421c.375.7.94,1.445,1.269,2.11.566.092.535.237,0,.421.642.122,1.078.466.635,1.055a1.253,1.253,0,0,1,.206.841h-.313c-.26-.336-.512-.7-.742-1.055-.543-.138-.688-.352-.421-.635-.581-.084-.688-.26-.214-.635a1.894,1.894,0,0,1-1.269-2.11,3.384,3.384,0,0,1-1.69-2.959c.1-.122.031-.573.421-.635a38.063,38.063,0,0,0,2.11,3.586Z" transform="translate(-26.262 -4.449)" fill="#12131a"/><path d="M17.069,19.469a3.393,3.393,0,0,1-1.69,2.959c.421.512-.375,2.271-1.055,2.11.329.306.191.512-.421.635.375.283.229.489-.421.635-.581.856-1.56,1.774-.841.214-.466-.581-.023-.948.635-1.055-.558-.069-.52-.214,0-.421.321-.642.879-1.4,1.269-2.11a31.82,31.82,0,0,0,2.11-3.586c.39.061.329.5.421.635Z" transform="translate(-2.924 -4.456)" fill="#121318"/><path d="M97.641,56.763c-.283-.038-.245-.069-.421-.214.352-.229.206-.872.214-1.269.4.3.161,1.017.214,1.476Z" transform="translate(-22.362 -12.726)" fill="#668bed"/><path d="M35.715,56.681c-.092.1-.115.359-.344.4-.176.031-.26-.184-.291-.184L35.5,55.84c0,.275-.107.7.214.841Z" transform="translate(-8.073 -12.856)" fill="#4fb38e"/><path d="M61.59,67.367c.3-.405,1.017-.161,1.476-.206.229.107-.466.375-.635.421-.145-.313-.566-.206-.841-.214Z" transform="translate(-14.166 -15.454)" fill="#dd2b24"/><path d="M72.64,23.9V18.83c.153.061.543-.031.849.092a2.567,2.567,0,0,1-.849,4.97Z" transform="translate(-16.702 -4.451)" fill="#fbbaac"/><path d="M61.7,26.01c-.3,3.907-5.887,4.06-5.91,0Z" transform="translate(-12.818 -5.996)" fill="#fefefe"/><path d="M15.5,27.029c.39-.39.451-.336.421.214a7.265,7.265,0,0,1,4.014.421c-.122.359-.084.788-.421,1.055-.008-.076.023-.168,0-.214l-1.055-.214h-.421l-1.055-.214h-.421a1.243,1.243,0,0,0-1.055,0c-.13-.023-.291-.184-.421-.214l-1.055-.214H13.82c.138-.2.3-.428.421-.635a.857.857,0,0,1,1.269,0Z" transform="translate(-3.261 -6.163)" fill="#eb9a14"/><path d="M10.046,26.509c.68-.206,1.85-.306,2.324.214-.184.382-.5.78-.635,1.055-.191-.344-.52-.336-.841-.421l-1.055-.214c-.421-.015-.849.015-1.269,0A2.527,2.527,0,0,1,10.046,26.509Z" transform="translate(-2.025 -6.074)" fill="#e39a17"/><path d="M24.03,37.565c.061-.39.161-.749.214-1.055C24.229,36.846,24.374,37.382,24.03,37.565Z" transform="translate(-5.664 -8.413)" fill="#c9a928"/><path d="M15.145,28.136c-.336-.015-.872.13-1.055-.214C14.533,27.731,14.893,28.075,15.145,28.136Z" transform="translate(-3.325 -6.426)" fill="#c3a82a"/><path d="M23.2,42.255c.069-.375.161-.749.214-1.055C23.4,41.536,23.544,42.072,23.2,42.255Z" transform="translate(-5.469 -9.491)" fill="#c9aa28"/><path d="M25.14,31.215a5.685,5.685,0,0,1,.214-1.055C25.339,30.5,25.484,31.039,25.14,31.215Z" transform="translate(-5.926 -6.953)" fill="#c49c22"/><path d="M22.1,48.605c.061-.359.153-.726.214-1.055C22.3,47.886,22.444,48.422,22.1,48.605Z" transform="translate(-5.21 -10.951)" fill="#c9aa28"/><path d="M11.275,27.6c-.336-.015-.872.13-1.055-.214A3,3,0,0,1,11.275,27.6Z" transform="translate(-2.413 -6.317)" fill="#c4a82a"/><path d="M20.99,54.965c.069-.382.161-.742.214-1.055Z" transform="translate(-4.949 -12.413)" fill="#c9aa28"/><path d="M19.015,28.7c-.336,0-.879.13-1.055-.214C18.3,28.491,18.839,28.354,19.015,28.7Z" transform="translate(-4.236 -6.564)" fill="#c3a82a"/><path d="M17.075,28.422a9.711,9.711,0,0,1-1.055,0A.678.678,0,0,1,17.075,28.422Z" transform="translate(-3.779 -6.496)" fill="#c3a628"/><path d="M20.945,28.977c-.336-.015-.872.13-1.055-.214C20.257,28.786,20.769,28.61,20.945,28.977Z" transform="translate(-4.69 -6.628)" fill="#c7a828"/><path d="M117.006,27.037c.115.191.291.428.421.635h-.214l-1.055.214c-.13.031-.291.191-.421.214a1.216,1.216,0,0,0-1.055,0h-.421l-1.055.214h-.421l-1.055.214c-.023.046.008.138,0,.214-.336-.268-.306-.7-.421-1.055a6.609,6.609,0,0,1,4.014-.421c-.115-.558.031-.619.421-.214.329-.245,1.093-.5,1.269,0Z" transform="translate(-25.486 -6.171)" fill="#ea9917"/><path d="M121.486,26.516a2.623,2.623,0,0,1,1.9.635c-.336.038-.734-.054-1.055,0a2.128,2.128,0,0,0-1.055.214,1.749,1.749,0,0,0-1.055.421c-.13-.283-.451-.665-.635-1.055.344-.26,1.6-.528,1.9-.214Z" transform="translate(-27.435 -6.082)" fill="#db962a"/><path d="M108.744,35.905c-.046-.275-.153-.7-.214-1.055Z" transform="translate(-24.831 -8.031)" fill="#d3a242"/><path d="M112.905,28.763c-.184.344-.719.2-1.055.214C112.026,28.61,112.538,28.786,112.905,28.763Z" transform="translate(-25.613 -6.628)" fill="#caa14e"/><path d="M122.855,27.385c-.268.038-.742.145-1.055.214C121.983,27.255,122.519,27.4,122.855,27.385Z" transform="translate(-27.955 -6.312)" fill="#d2a243"/><path d="M109.854,42.255c-.046-.283-.153-.7-.214-1.055Z" transform="translate(-25.092 -9.491)" fill="#d2a242"/><path d="M110.954,48.605c-.046-.275-.153-.7-.214-1.055Z" transform="translate(-25.351 -10.951)" fill="#d2a141"/><path d="M111.779,53.305c-.359-.184-.184-.719-.214-1.055C111.871,52.556,111.764,52.93,111.779,53.305Z" transform="translate(-25.542 -12.031)" fill="#d3a242"/><path d="M112.059,54.965c-.344-.183-.2-.719-.214-1.055C112.212,54.094,112.013,54.644,112.059,54.965Z" transform="translate(-25.607 -12.413)" fill="#d3a141"/><path d="M116.775,28.422a9.71,9.71,0,0,1-1.055,0A.678.678,0,0,1,116.775,28.422Z" transform="translate(-26.524 -6.496)" fill="#cd9d44"/><path d="M118.705,27.934c-.183.344-.719.2-1.055.214C117.9,28.094,118.262,27.75,118.705,27.934Z" transform="translate(-26.978 -6.43)" fill="#ce9e46"/><path d="M114.845,28.494c-.176.336-.719.206-1.055.214C113.966,28.372,114.509,28.5,114.845,28.494Z" transform="translate(-26.069 -6.567)" fill="#ce9f47"/><path d="M36.382,36.3c-.061.184-.13.184-.214,0a9.7,9.7,0,0,1,.214-3.38C36.382,34.044,36.4,35.176,36.382,36.3Z" transform="translate(-8.315 -7.582)" fill="#489d75"/><path d="M35.841,51.567c-.061.184-.13.184-.214,0,0-.979-.023-1.973,0-2.959.061-.184.13-.184.214,0C35.841,49.594,35.856,50.58,35.841,51.567Z" transform="translate(-8.198 -11.156)" fill="#49ac87"/><path d="M36.1,43.675c-.061.184-.13.184-.214,0A6.365,6.365,0,0,1,36.1,40.93C36.1,41.84,36.11,42.765,36.1,43.675Z" transform="translate(-8.251 -9.424)" fill="#4b9e75"/><path d="M30.206,28.146c-.466,0-1.193.161-1.476-.214C29.2,27.954,29.915,27.763,30.206,28.146Z" transform="translate(-6.612 -6.435)" fill="#459f75"/><path d="M35.456,28.7c-.466-.038-1.177.184-1.476-.214C34.446,28.52,35.157,28.3,35.456,28.7Z" transform="translate(-7.819 -6.562)" fill="#489f76"/><path d="M36.18,38.6V37.33h.214C36.394,37.728,36.539,38.37,36.18,38.6Z" transform="translate(-8.327 -8.601)" fill="#308f66"/><path d="M35.91,45.779V44.51h.214C36.124,44.908,36.269,45.55,35.91,45.779Z" transform="translate(-8.265 -10.251)" fill="#3b926b"/><path d="M36.664,29.825c-.061.184-.13.184-.214,0V28.77C36.8,28.923,36.656,29.466,36.664,29.825Z" transform="translate(-8.389 -6.633)" fill="#44956f"/><path d="M36.46,31.215V30.16h.214C36.674,30.5,36.789,31.039,36.46,31.215Z" transform="translate(-8.392 -6.953)" fill="#2b8d64"/><path d="M32.545,28.434c-.336-.015-.872.13-1.055-.214A7.944,7.944,0,0,1,32.545,28.434Z" transform="translate(-7.247 -6.508)" fill="#43a277"/><path d="M35.63,53.585V52.53h.214C35.844,52.866,35.966,53.409,35.63,53.585Z" transform="translate(-8.201 -12.096)" fill="#319871"/><path d="M35.837,48.335h-.214c0-.336-.13-.879.214-1.055Z" transform="translate(-8.193 -10.889)" fill="#32a878"/><path d="M96.863,36.937a7.567,7.567,0,0,1-.214-2.959c.061-.184.13-.184.214,0C96.878,34.956,96.863,35.95,96.863,36.937Z" transform="translate(-22.223 -7.795)" fill="#6375cc"/><path d="M97.413,52.322c-.39-.558-.206-1.59-.214-2.324.061-.183.13-.183.214,0Z" transform="translate(-22.35 -11.478)" fill="#6281d9"/><path d="M97.154,42.694c-.061.184-.13.184-.214,0V40.37C97.33,40.928,97.146,41.96,97.154,42.694Z" transform="translate(-22.299 -9.297)" fill="#6478d2"/><path d="M97.424,49.454H97.21v-1.9C97.592,47.971,97.416,48.857,97.424,49.454Z" transform="translate(-22.361 -10.948)" fill="#6082ea"/><path d="M97.144,45.314c-.382-.421-.206-1.307-.214-1.9h.214Z" transform="translate(-22.288 -9.997)" fill="#5a6bc0"/><path d="M101.239,28.213c-.229.352-.872.206-1.269.214C100.2,28.075,100.842,28.22,101.239,28.213Z" transform="translate(-22.99 -6.501)" fill="#6476cc"/><path d="M98.759,28.5c-.237.375-.872.184-1.269.214A7.182,7.182,0,0,1,98.759,28.5Z" transform="translate(-22.42 -6.572)" fill="#6276d0"/><path d="M104.009,27.943c-.421.061-.7.168-1.269.214C102.977,27.783,103.612,27.974,104.009,27.943Z" transform="translate(-23.627 -6.439)" fill="#6279d8"/><path d="M96.874,33.7H96.66V32.64C97,32.816,96.866,33.359,96.874,33.7Z" transform="translate(-22.234 -7.523)" fill="#5e7ce6"/><path d="M108.52,27.288a2.22,2.22,0,0,1,.214.635c-.268.038-.658.153-1.055.214-.229-.191.008-.6,0-.635C107.564,26.882,108.237,26.76,108.52,27.288Z" transform="translate(-24.607 -6.216)" fill="#5879e0"/><path d="M110.255,27.875h-.421a2.075,2.075,0,0,0-.214-.635c-.168-.581.015-.627.421-.214.092.3.138.619.214.841Z" transform="translate(-25.073 -6.17)" fill="#4d6fdb"/><path d="M25.085,27.533c-.046.161.031.443,0,.635-.405-.061-.772-.168-1.055-.214-.008-.168.184-.329.214-.421.229-.573.665-.612.841,0Z" transform="translate(-5.664 -6.247)" fill="#2ba069"/><path d="M23.285,27.231a2.22,2.22,0,0,0-.214.635H22.65c.076-.237.122-.543.214-.841.3-.512.535-.352.421.214Z" transform="translate(-5.34 -6.161)" fill="#239668"/><path d="M28.45,17.5V14.97A4.518,4.518,0,0,1,28.45,17.5Z" transform="translate(-6.55 -3.543)" fill="#14141b"/><path d="M104.6,17.955c-.336-.176-.206-.719-.214-1.055C104.728,17.076,104.583,17.619,104.6,17.955Z" transform="translate(-24.006 -3.997)" fill="#15141b"/><path d="M12.824,26.221c-.046.092.046.329,0,.421-.8.038-1.5-.283-2.324-.214a.279.279,0,0,1,.214-.214A3.283,3.283,0,0,1,11.983,26a6.473,6.473,0,0,1,.841.214Z" transform="translate(-2.479 -5.997)" fill="#25a871"/><path d="M9.559,25.735c-.375.551-.956.069-1.269,0C8.7,25.766,9.154,25.689,9.559,25.735Z" transform="translate(-1.959 -5.933)" fill="#4aad88"/><path d="M12.039,26.008c-.252.015-.841.161-1.269.214v-.214C11.175,26.054,11.626,25.977,12.039,26.008Z" transform="translate(-2.543 -5.998)" fill="#45ad86"/><path d="M121.694,26.009l-.214.421c-.658,0-1.239.275-1.9.214-.046-.092.046-.329,0-.421h.635l1.055-.214c.138-.015.283.015.421,0Z" transform="translate(-27.428 -5.998)" fill="#547cee"/><path d="M124.439,25.733c-.451.084-.8.153-1.269.214C123.407,25.573,124.042,25.764,124.439,25.733Z" transform="translate(-28.277 -5.931)" fill="#6386e6"/><path d="M22.069,22.506c-.092.375-.092.818-.214,1.269l-.229.4c-.788.008-2.875-.145-3.142-.818-.421-.245.8-2.3.933-2.34a.636.636,0,0,1,.336.015,10.657,10.657,0,0,1,2.324,1.476Z" transform="translate(-4.338 -4.962)" fill="#fbfcfb"/><path d="M18.621,20.509c.3.566-.749,2.477-1.476,2.531-.3.543-.979.161-.841-.421.566-.986,1.1-1.988,1.69-2.959.122.161.6.8.635.841Z" transform="translate(-3.842 -4.647)" fill="#fafafa"/><path d="M19.143,20.974A16.684,16.684,0,0,0,17.874,23.3a1.69,1.69,0,0,1-1.055,2.11c.184.222.038.367-.421.421-.2-.023-.375-.206-.421-.214-.184-.061-.184-.13,0-.214-.283-.489.405-2.278,1.055-2.11a13.267,13.267,0,0,0,1.476-2.531A3.35,3.35,0,0,1,19.143,20.974Z" transform="translate(-3.736 -4.787)" fill="#161a1d"/><path d="M113.5,23.355c0,.161-.015.413-.13.443-.757.2-2.821.566-3.25-.023-.122-.451-.122-.887-.214-1.269a10.656,10.656,0,0,1,2.324-1.476.639.639,0,0,1,.336-.015c.13.038,1.361,2.087.925,2.34Z" transform="translate(-25.156 -4.962)" fill="#fcfcfc"/><path d="M116.094,22.621c.252.573-.466.879-.841.421-.749-.084-1.736-1.934-1.476-2.531.038-.038.512-.68.635-.841.589.971,1.124,1.973,1.69,2.959Z" transform="translate(-26.056 -4.649)" fill="#fbfbfb"/><path d="M113.595,20.768A16.329,16.329,0,0,0,115.07,23.3c.7-.076,1.392,1.56,1.055,2.11.184.061.184.13,0,.214-.122.015-.3.191-.421.214-.489-.076-.749-.122-.421-.635a2.055,2.055,0,0,1-1.055-1.9,17.129,17.129,0,0,0-1.269-2.324,3.787,3.787,0,0,1,.635-.214Z" transform="translate(-25.874 -4.787)" fill="#151720"/><path d="M106.022,14.6a22.816,22.816,0,0,0,1.055,7.18.834.834,0,0,1-.635.635c-.061.184-.13.184-.214,0a21.9,21.9,0,0,1-1.055-5.069,5.445,5.445,0,0,1,0-2.531c.252-.5.482-.757.841-.214Z" transform="translate(-24.147 -3.384)" fill="#f9b8aa"/><path d="M108.172,21.254c-.673-2.4-1.537-4.87-1.055-7.394l.635.421a21.232,21.232,0,0,0,.841,6.759C108.608,21.6,108.593,21.674,108.172,21.254Z" transform="translate(-24.466 -3.282)" fill="#f3b3a6"/><path d="M107.667,24.821c.191.635.436,1.262.635,1.9l-.841.214a20.531,20.531,0,0,1-.841-2.11h.214a.447.447,0,0,1,.841,0Z" transform="translate(-24.382 -5.657)" fill="#284bb2"/><path d="M109.873,26.451l-.421.214c-.2-.635-.436-1.269-.635-1.9-.031-.558.008-.635.421-.214C109.383,25.106,109.681,25.84,109.873,26.451Z" transform="translate(-24.897 -5.599)" fill="#2748ac"/><path d="M105.22,14.643c.183-.65.092-1.124,1.055-1.055a1.986,1.986,0,0,0-.214.841C105.9,14.505,105.243,14.6,105.22,14.643Z" transform="translate(-24.198 -3.216)" fill="#e8e4e5"/><path d="M109.175,24.305l-.421.214c-.107-.359-.122-.734-.214-1.055l.421-.214C109.045,23.609,109.1,24.015,109.175,24.305Z" transform="translate(-24.834 -5.492)" fill="#dfdde3"/><path d="M105.139,17.5a3.264,3.264,0,0,1,0-2.531A23.121,23.121,0,0,0,105.139,17.5Z" transform="translate(-24.123 -3.543)" fill="#15141b"/><path d="M107.725,24.715h-.841c-.115-.474.275-.482.635-.635.061.206.145.421.214.635Z" transform="translate(-24.439 -5.687)" fill="#fbf6f6"/><path d="M27.314,14.821a8.772,8.772,0,0,1,0,2.531,43.853,43.853,0,0,1-1.055,5.069c-.061.184-.13.184-.214,0a.824.824,0,0,1-.635-.635,23.8,23.8,0,0,0,1.055-7.18c.26-.512.619-.214.841.214Z" transform="translate(-5.848 -3.394)" fill="#f9b8aa"/><path d="M24.874,14.278l.635-.428c.489,2.523-.39,4.985-1.055,7.394-.306.512-.512.359-.421-.214a21.875,21.875,0,0,0,.841-6.759Z" transform="translate(-5.66 -3.279)" fill="#f4b3a6"/><path d="M25.788,24.818H26c-.176.619-.65,1.491-.841,2.11H24.32c.2-.726.421-1.4.635-2.11a.446.446,0,0,1,.841,0Z" transform="translate(-5.733 -5.654)" fill="#14845a"/><path d="M23.555,24.36a.528.528,0,0,1,.421.421c-.191.635-.436,1.262-.635,1.9l-.421-.214C23.126,25.782,23.379,25.048,23.555,24.36Z" transform="translate(-5.403 -5.617)" fill="#1a7f58"/><path d="M26.724,14.431a1.785,1.785,0,0,0-.214-.841c.841,0,.872.39,1.055,1.055C27.535,14.615,26.885,14.622,26.724,14.431Z" transform="translate(-6.102 -3.218)" fill="#e2dfe0"/><path d="M24.378,23.466c-.092.321-.1.7-.214,1.055-.451.054-.474.023-.421-.421.069-.275.145-.566.214-.841l.421.214Z" transform="translate(-5.592 -5.494)" fill="#e4e3e2"/><path d="M27.895,17.5c-.069-.413.1-2.424,0-2.531A4.2,4.2,0,0,1,27.895,17.5Z" transform="translate(-6.418 -3.543)" fill="#14141b"/><path d="M25.346,24.08c.359.153.749.161.635.635H25.14c.061-.214.153-.428.214-.635Z" transform="translate(-5.926 -5.687)" fill="#faf5f4"/><path d="M121.465,26a4.587,4.587,0,0,1-1.055.214C120.593,25.875,121.129,26.02,121.465,26Z" transform="translate(-27.628 -5.995)" fill="#5f7fd7"/><path d="M21.565,24.5c-.176.642-.428,1.269-.635,1.9-.206.665-1.522.443-1.476-.214a1.659,1.659,0,0,1-1.269,0c.038.459-.94.367-1.055,0,.344-.6.68-1.422,1.055-2.11Z" transform="translate(-4.04 -5.553)" fill="#0f865a"/><path d="M18.053,26.84a1.732,1.732,0,0,0,1.269,0c.382.046.9.742,1.476.214-.069.214-.138.421-.214.635-1.33-.122-2.691-.245-4.014-.421.031-.214.382-.344.421-.421h1.055Z" transform="translate(-3.908 -6.19)" fill="#22a871"/><path d="M113.57,24.08l1.055,1.9c.1.512-.918.658-1.055.214a1.731,1.731,0,0,1-1.269,0c-.038.6-1.231.742-1.476.214-.206-.627-.459-1.262-.635-1.9l3.38-.421Z" transform="translate(-25.222 -5.553)" fill="#244bb9"/><path d="M114.818,26.558c.1.184.382.359.421.635-1.323.176-2.684.306-4.014.421-.069-.214-.145-.421-.214-.635.535.168,1.07-.161,1.476-.214a1.811,1.811,0,0,0,1.269,0,6.146,6.146,0,0,0,1.055-.214Z" transform="translate(-25.415 -6.123)" fill="#527cf2"/><path d="M117.83,25.64c.222.489-.688.5-1.055.421a19.4,19.4,0,0,1-1.055-2.11l.841-.421C116.966,24.233,117.417,24.937,117.83,25.64Z" transform="translate(-26.524 -5.426)" fill="#274db5"/><path d="M118.155,26.29c.122.214.138.5.214.635-.413.031-.864-.046-1.269,0v-.214l1.055-.421Z" transform="translate(-26.849 -6.064)" fill="#5178e7"/><path d="M16.808,23.951a10.669,10.669,0,0,1-1.055,2.11c-.313.122-1.009.031-.841-.421.321-.558.665-1.43,1.055-2.11Z" transform="translate(-3.512 -5.426)" fill="#14865b"/><path d="M15.629,26.711v.214c-.4-.046-.856.031-1.269,0,.145-.245.336-.482.421-.635l.841.421Z" transform="translate(-3.388 -6.064)" fill="#25a46f"/><path d="M19.769,26.834a.917.917,0,0,1-1.269,0A11.712,11.712,0,0,1,19.769,26.834Z" transform="translate(-4.363 -6.185)" fill="#3da980"/><path d="M114.219,26.835c-.3.061-.9.558-1.269,0C113.348,26.789,113.806,26.866,114.219,26.835Z" transform="translate(-25.872 -6.186)" fill="#6688e7"/><ellipse cx="0.864" cy="1.132" rx="0.864" ry="1.132" transform="translate(41.603 13.622)" fill="#18171d"/><ellipse cx="0.864" cy="1.132" rx="0.864" ry="1.132" transform="translate(47.895 13.622)" fill="#18171d"/></g></svg>